%TF.GenerationSoftware,KiCad,Pcbnew,9.0.4*%
%TF.CreationDate,2025-12-02T16:43:16+05:30*%
%TF.ProjectId,Eg,45672e6b-6963-4616-945f-706362585858,rev?*%
%TF.SameCoordinates,Original*%
%TF.FileFunction,Legend,Bot*%
%TF.FilePolarity,Positive*%
%FSLAX46Y46*%
G04 Gerber Fmt 4.6, Leading zero omitted, Abs format (unit mm)*
G04 Created by KiCad (PCBNEW 9.0.4) date 2025-12-02 16:43:16*
%MOMM*%
%LPD*%
G01*
G04 APERTURE LIST*
%ADD10C,0.010000*%
G04 APERTURE END LIST*
D10*
%TO.C,REF\u002A\u002A*%
X154255406Y-109074949D02*
X154281127Y-109090647D01*
X154307778Y-109112227D01*
X154307778Y-109759684D01*
X154281127Y-109781264D01*
X154249767Y-109798739D01*
X154213966Y-109799575D01*
X154182528Y-109779082D01*
X154178652Y-109774416D01*
X154173186Y-109764949D01*
X154168979Y-109751267D01*
X154165867Y-109730748D01*
X154163687Y-109700768D01*
X154162276Y-109658704D01*
X154161471Y-109601932D01*
X154161107Y-109527830D01*
X154161022Y-109433773D01*
X154161022Y-109112227D01*
X154187673Y-109090647D01*
X154211386Y-109075877D01*
X154234400Y-109069067D01*
X154255406Y-109074949D01*
G36*
X154255406Y-109074949D02*
G01*
X154281127Y-109090647D01*
X154307778Y-109112227D01*
X154307778Y-109759684D01*
X154281127Y-109781264D01*
X154249767Y-109798739D01*
X154213966Y-109799575D01*
X154182528Y-109779082D01*
X154178652Y-109774416D01*
X154173186Y-109764949D01*
X154168979Y-109751267D01*
X154165867Y-109730748D01*
X154163687Y-109700768D01*
X154162276Y-109658704D01*
X154161471Y-109601932D01*
X154161107Y-109527830D01*
X154161022Y-109433773D01*
X154161022Y-109112227D01*
X154187673Y-109090647D01*
X154211386Y-109075877D01*
X154234400Y-109069067D01*
X154255406Y-109074949D01*
G37*
X161386137Y-109073463D02*
X161420291Y-109096776D01*
X161448000Y-109124485D01*
X161448000Y-109437537D01*
X161447959Y-109521567D01*
X161447701Y-109595789D01*
X161447030Y-109652541D01*
X161445752Y-109694512D01*
X161443673Y-109724389D01*
X161440599Y-109744861D01*
X161436334Y-109758614D01*
X161430684Y-109768337D01*
X161423455Y-109776717D01*
X161391991Y-109798181D01*
X161356826Y-109799947D01*
X161323822Y-109780267D01*
X161318516Y-109774398D01*
X161313066Y-109765314D01*
X161308900Y-109751973D01*
X161305846Y-109731757D01*
X161303732Y-109702049D01*
X161302386Y-109660232D01*
X161301638Y-109603689D01*
X161301314Y-109529802D01*
X161301245Y-109435956D01*
X161301284Y-109360294D01*
X161301539Y-109282385D01*
X161302183Y-109222375D01*
X161303387Y-109177648D01*
X161305324Y-109145585D01*
X161308164Y-109123571D01*
X161312079Y-109108987D01*
X161317242Y-109099218D01*
X161323822Y-109091645D01*
X161353006Y-109072623D01*
X161386137Y-109073463D01*
G36*
X161386137Y-109073463D02*
G01*
X161420291Y-109096776D01*
X161448000Y-109124485D01*
X161448000Y-109437537D01*
X161447959Y-109521567D01*
X161447701Y-109595789D01*
X161447030Y-109652541D01*
X161445752Y-109694512D01*
X161443673Y-109724389D01*
X161440599Y-109744861D01*
X161436334Y-109758614D01*
X161430684Y-109768337D01*
X161423455Y-109776717D01*
X161391991Y-109798181D01*
X161356826Y-109799947D01*
X161323822Y-109780267D01*
X161318516Y-109774398D01*
X161313066Y-109765314D01*
X161308900Y-109751973D01*
X161305846Y-109731757D01*
X161303732Y-109702049D01*
X161302386Y-109660232D01*
X161301638Y-109603689D01*
X161301314Y-109529802D01*
X161301245Y-109435956D01*
X161301284Y-109360294D01*
X161301539Y-109282385D01*
X161302183Y-109222375D01*
X161303387Y-109177648D01*
X161305324Y-109145585D01*
X161308164Y-109123571D01*
X161312079Y-109108987D01*
X161317242Y-109099218D01*
X161323822Y-109091645D01*
X161353006Y-109072623D01*
X161386137Y-109073463D01*
G37*
X160854562Y-103832850D02*
X160937313Y-103860053D01*
X161012406Y-103905484D01*
X161084298Y-103971302D01*
X161122846Y-104015567D01*
X161162256Y-104073961D01*
X161187446Y-104134586D01*
X161200861Y-104203865D01*
X161204948Y-104288222D01*
X161204669Y-104334307D01*
X161202460Y-104375450D01*
X161196894Y-104407582D01*
X161186586Y-104438122D01*
X161170148Y-104474489D01*
X161156200Y-104501728D01*
X161097665Y-104587429D01*
X161025619Y-104656617D01*
X160941947Y-104707741D01*
X160848531Y-104739250D01*
X160815434Y-104746225D01*
X160774960Y-104753094D01*
X160741999Y-104754919D01*
X160707698Y-104751947D01*
X160663200Y-104744426D01*
X160611934Y-104732002D01*
X160521434Y-104694112D01*
X160442345Y-104639836D01*
X160376528Y-104571770D01*
X160325840Y-104492511D01*
X160292140Y-104404654D01*
X160277286Y-104310795D01*
X160283136Y-104213530D01*
X160309399Y-104117220D01*
X160354418Y-104028494D01*
X160415373Y-103953419D01*
X160490184Y-103893641D01*
X160576768Y-103850809D01*
X160673043Y-103826571D01*
X160776928Y-103822576D01*
X160854562Y-103832850D01*
G36*
X160854562Y-103832850D02*
G01*
X160937313Y-103860053D01*
X161012406Y-103905484D01*
X161084298Y-103971302D01*
X161122846Y-104015567D01*
X161162256Y-104073961D01*
X161187446Y-104134586D01*
X161200861Y-104203865D01*
X161204948Y-104288222D01*
X161204669Y-104334307D01*
X161202460Y-104375450D01*
X161196894Y-104407582D01*
X161186586Y-104438122D01*
X161170148Y-104474489D01*
X161156200Y-104501728D01*
X161097665Y-104587429D01*
X161025619Y-104656617D01*
X160941947Y-104707741D01*
X160848531Y-104739250D01*
X160815434Y-104746225D01*
X160774960Y-104753094D01*
X160741999Y-104754919D01*
X160707698Y-104751947D01*
X160663200Y-104744426D01*
X160611934Y-104732002D01*
X160521434Y-104694112D01*
X160442345Y-104639836D01*
X160376528Y-104571770D01*
X160325840Y-104492511D01*
X160292140Y-104404654D01*
X160277286Y-104310795D01*
X160283136Y-104213530D01*
X160309399Y-104117220D01*
X160354418Y-104028494D01*
X160415373Y-103953419D01*
X160490184Y-103893641D01*
X160576768Y-103850809D01*
X160673043Y-103826571D01*
X160776928Y-103822576D01*
X160854562Y-103832850D01*
G37*
X153555767Y-109069068D02*
X153649890Y-109069158D01*
X153724405Y-109069498D01*
X153781811Y-109070239D01*
X153824611Y-109071535D01*
X153855304Y-109073537D01*
X153876391Y-109076396D01*
X153890373Y-109080266D01*
X153899750Y-109085298D01*
X153907022Y-109091645D01*
X153925828Y-109124362D01*
X153927275Y-109161939D01*
X153910917Y-109195178D01*
X153909557Y-109196631D01*
X153898354Y-109204992D01*
X153881252Y-109210547D01*
X153854082Y-109213840D01*
X153812678Y-109215418D01*
X153752873Y-109215822D01*
X153613511Y-109215822D01*
X153613511Y-109479589D01*
X153613436Y-109555417D01*
X153613028Y-109622083D01*
X153612046Y-109671867D01*
X153610250Y-109707784D01*
X153607399Y-109732850D01*
X153603253Y-109750081D01*
X153597571Y-109762492D01*
X153590114Y-109773100D01*
X153587824Y-109775906D01*
X153556646Y-109798548D01*
X153522266Y-109800112D01*
X153489334Y-109780267D01*
X153482355Y-109772191D01*
X153476883Y-109761593D01*
X153472863Y-109745749D01*
X153470072Y-109721773D01*
X153468288Y-109686774D01*
X153467289Y-109637864D01*
X153466852Y-109572154D01*
X153466756Y-109486756D01*
X153466756Y-109215822D01*
X153320820Y-109215822D01*
X153309720Y-109215821D01*
X153253202Y-109215596D01*
X153214358Y-109214457D01*
X153188965Y-109211657D01*
X153172804Y-109206450D01*
X153161652Y-109198089D01*
X153151289Y-109185826D01*
X153135441Y-109155138D01*
X153138543Y-109121358D01*
X153164187Y-109088822D01*
X153169129Y-109085105D01*
X153179338Y-109080269D01*
X153194764Y-109076506D01*
X153217886Y-109073683D01*
X153251183Y-109071670D01*
X153297137Y-109070333D01*
X153358228Y-109069542D01*
X153436935Y-109069163D01*
X153535740Y-109069067D01*
X153555767Y-109069068D01*
G36*
X153555767Y-109069068D02*
G01*
X153649890Y-109069158D01*
X153724405Y-109069498D01*
X153781811Y-109070239D01*
X153824611Y-109071535D01*
X153855304Y-109073537D01*
X153876391Y-109076396D01*
X153890373Y-109080266D01*
X153899750Y-109085298D01*
X153907022Y-109091645D01*
X153925828Y-109124362D01*
X153927275Y-109161939D01*
X153910917Y-109195178D01*
X153909557Y-109196631D01*
X153898354Y-109204992D01*
X153881252Y-109210547D01*
X153854082Y-109213840D01*
X153812678Y-109215418D01*
X153752873Y-109215822D01*
X153613511Y-109215822D01*
X153613511Y-109479589D01*
X153613436Y-109555417D01*
X153613028Y-109622083D01*
X153612046Y-109671867D01*
X153610250Y-109707784D01*
X153607399Y-109732850D01*
X153603253Y-109750081D01*
X153597571Y-109762492D01*
X153590114Y-109773100D01*
X153587824Y-109775906D01*
X153556646Y-109798548D01*
X153522266Y-109800112D01*
X153489334Y-109780267D01*
X153482355Y-109772191D01*
X153476883Y-109761593D01*
X153472863Y-109745749D01*
X153470072Y-109721773D01*
X153468288Y-109686774D01*
X153467289Y-109637864D01*
X153466852Y-109572154D01*
X153466756Y-109486756D01*
X153466756Y-109215822D01*
X153320820Y-109215822D01*
X153309720Y-109215821D01*
X153253202Y-109215596D01*
X153214358Y-109214457D01*
X153188965Y-109211657D01*
X153172804Y-109206450D01*
X153161652Y-109198089D01*
X153151289Y-109185826D01*
X153135441Y-109155138D01*
X153138543Y-109121358D01*
X153164187Y-109088822D01*
X153169129Y-109085105D01*
X153179338Y-109080269D01*
X153194764Y-109076506D01*
X153217886Y-109073683D01*
X153251183Y-109071670D01*
X153297137Y-109070333D01*
X153358228Y-109069542D01*
X153436935Y-109069163D01*
X153535740Y-109069067D01*
X153555767Y-109069068D01*
G37*
X152879734Y-109091645D02*
X152885366Y-109097835D01*
X152890456Y-109106041D01*
X152894543Y-109117817D01*
X152897721Y-109135276D01*
X152900087Y-109160530D01*
X152901738Y-109195690D01*
X152902769Y-109242869D01*
X152903277Y-109304177D01*
X152903359Y-109381727D01*
X152903109Y-109477631D01*
X152902625Y-109594000D01*
X152902557Y-109608175D01*
X152901971Y-109669937D01*
X152900648Y-109713620D01*
X152898103Y-109743001D01*
X152893848Y-109761855D01*
X152887396Y-109773959D01*
X152878262Y-109783089D01*
X152844804Y-109800506D01*
X152809856Y-109797604D01*
X152778953Y-109773100D01*
X152769944Y-109759897D01*
X152762492Y-109741361D01*
X152758124Y-109715333D01*
X152756069Y-109676787D01*
X152755556Y-109620700D01*
X152755556Y-109498045D01*
X152258845Y-109498045D01*
X152258845Y-109632871D01*
X152258772Y-109668662D01*
X152258009Y-109714992D01*
X152255833Y-109745526D01*
X152251536Y-109764557D01*
X152244412Y-109776374D01*
X152233755Y-109785271D01*
X152201504Y-109800341D01*
X152166217Y-109797673D01*
X152135486Y-109773100D01*
X152130831Y-109766845D01*
X152124895Y-109756321D01*
X152120364Y-109742391D01*
X152117048Y-109722317D01*
X152114759Y-109693360D01*
X152113308Y-109652780D01*
X152112505Y-109597840D01*
X152112162Y-109525799D01*
X152112089Y-109433920D01*
X152112089Y-109124485D01*
X152139798Y-109096776D01*
X152171177Y-109074533D01*
X152204406Y-109071844D01*
X152236267Y-109091645D01*
X152244553Y-109101415D01*
X152251965Y-109117307D01*
X152256302Y-109141275D01*
X152258338Y-109178148D01*
X152258845Y-109232756D01*
X152258845Y-109351289D01*
X152755556Y-109351289D01*
X152755556Y-109235776D01*
X152755994Y-109184078D01*
X152757958Y-109149554D01*
X152762474Y-109126978D01*
X152770567Y-109111126D01*
X152783265Y-109096776D01*
X152814643Y-109074533D01*
X152847872Y-109071844D01*
X152879734Y-109091645D01*
G36*
X152879734Y-109091645D02*
G01*
X152885366Y-109097835D01*
X152890456Y-109106041D01*
X152894543Y-109117817D01*
X152897721Y-109135276D01*
X152900087Y-109160530D01*
X152901738Y-109195690D01*
X152902769Y-109242869D01*
X152903277Y-109304177D01*
X152903359Y-109381727D01*
X152903109Y-109477631D01*
X152902625Y-109594000D01*
X152902557Y-109608175D01*
X152901971Y-109669937D01*
X152900648Y-109713620D01*
X152898103Y-109743001D01*
X152893848Y-109761855D01*
X152887396Y-109773959D01*
X152878262Y-109783089D01*
X152844804Y-109800506D01*
X152809856Y-109797604D01*
X152778953Y-109773100D01*
X152769944Y-109759897D01*
X152762492Y-109741361D01*
X152758124Y-109715333D01*
X152756069Y-109676787D01*
X152755556Y-109620700D01*
X152755556Y-109498045D01*
X152258845Y-109498045D01*
X152258845Y-109632871D01*
X152258772Y-109668662D01*
X152258009Y-109714992D01*
X152255833Y-109745526D01*
X152251536Y-109764557D01*
X152244412Y-109776374D01*
X152233755Y-109785271D01*
X152201504Y-109800341D01*
X152166217Y-109797673D01*
X152135486Y-109773100D01*
X152130831Y-109766845D01*
X152124895Y-109756321D01*
X152120364Y-109742391D01*
X152117048Y-109722317D01*
X152114759Y-109693360D01*
X152113308Y-109652780D01*
X152112505Y-109597840D01*
X152112162Y-109525799D01*
X152112089Y-109433920D01*
X152112089Y-109124485D01*
X152139798Y-109096776D01*
X152171177Y-109074533D01*
X152204406Y-109071844D01*
X152236267Y-109091645D01*
X152244553Y-109101415D01*
X152251965Y-109117307D01*
X152256302Y-109141275D01*
X152258338Y-109178148D01*
X152258845Y-109232756D01*
X152258845Y-109351289D01*
X152755556Y-109351289D01*
X152755556Y-109235776D01*
X152755994Y-109184078D01*
X152757958Y-109149554D01*
X152762474Y-109126978D01*
X152770567Y-109111126D01*
X152783265Y-109096776D01*
X152814643Y-109074533D01*
X152847872Y-109071844D01*
X152879734Y-109091645D01*
G37*
X157585133Y-109680396D02*
X157583163Y-109713175D01*
X157580235Y-109736095D01*
X157576158Y-109751897D01*
X157570743Y-109763319D01*
X157563803Y-109773100D01*
X157540406Y-109802845D01*
X157374714Y-109802251D01*
X157339918Y-109801953D01*
X157241435Y-109798522D01*
X157160473Y-109790839D01*
X157093379Y-109778282D01*
X157036496Y-109760227D01*
X156986169Y-109736052D01*
X156982810Y-109734135D01*
X156924998Y-109697417D01*
X156882644Y-109660451D01*
X156849828Y-109616966D01*
X156820628Y-109560689D01*
X156816346Y-109551073D01*
X156793769Y-109487887D01*
X156788034Y-109442333D01*
X156937279Y-109442333D01*
X156942892Y-109467061D01*
X156948618Y-109482939D01*
X156981548Y-109542847D01*
X157028886Y-109588600D01*
X157092652Y-109621736D01*
X157174861Y-109643790D01*
X157177655Y-109644292D01*
X157223940Y-109650255D01*
X157280336Y-109654483D01*
X157335274Y-109656089D01*
X157429156Y-109656089D01*
X157429156Y-109215822D01*
X157341667Y-109216270D01*
X157274747Y-109218746D01*
X157182349Y-109229998D01*
X157103034Y-109249537D01*
X157041060Y-109276511D01*
X157010120Y-109297240D01*
X156982000Y-109327006D01*
X156958660Y-109369434D01*
X156951533Y-109385400D01*
X156939709Y-109417902D01*
X156937279Y-109442333D01*
X156788034Y-109442333D01*
X156786797Y-109432509D01*
X156795399Y-109377483D01*
X156819541Y-109315351D01*
X156820337Y-109313658D01*
X156860788Y-109244236D01*
X156911473Y-109187638D01*
X156974198Y-109143070D01*
X157050774Y-109109741D01*
X157143009Y-109086861D01*
X157252712Y-109073636D01*
X157381691Y-109069275D01*
X157385263Y-109069270D01*
X157445283Y-109069410D01*
X157487214Y-109070446D01*
X157515328Y-109073040D01*
X157533897Y-109077853D01*
X157547194Y-109085544D01*
X157559491Y-109096776D01*
X157587200Y-109124485D01*
X157587200Y-109433920D01*
X157587175Y-109495526D01*
X157586950Y-109574311D01*
X157586332Y-109635021D01*
X157585775Y-109656089D01*
X157585133Y-109680396D01*
G36*
X157585133Y-109680396D02*
G01*
X157583163Y-109713175D01*
X157580235Y-109736095D01*
X157576158Y-109751897D01*
X157570743Y-109763319D01*
X157563803Y-109773100D01*
X157540406Y-109802845D01*
X157374714Y-109802251D01*
X157339918Y-109801953D01*
X157241435Y-109798522D01*
X157160473Y-109790839D01*
X157093379Y-109778282D01*
X157036496Y-109760227D01*
X156986169Y-109736052D01*
X156982810Y-109734135D01*
X156924998Y-109697417D01*
X156882644Y-109660451D01*
X156849828Y-109616966D01*
X156820628Y-109560689D01*
X156816346Y-109551073D01*
X156793769Y-109487887D01*
X156788034Y-109442333D01*
X156937279Y-109442333D01*
X156942892Y-109467061D01*
X156948618Y-109482939D01*
X156981548Y-109542847D01*
X157028886Y-109588600D01*
X157092652Y-109621736D01*
X157174861Y-109643790D01*
X157177655Y-109644292D01*
X157223940Y-109650255D01*
X157280336Y-109654483D01*
X157335274Y-109656089D01*
X157429156Y-109656089D01*
X157429156Y-109215822D01*
X157341667Y-109216270D01*
X157274747Y-109218746D01*
X157182349Y-109229998D01*
X157103034Y-109249537D01*
X157041060Y-109276511D01*
X157010120Y-109297240D01*
X156982000Y-109327006D01*
X156958660Y-109369434D01*
X156951533Y-109385400D01*
X156939709Y-109417902D01*
X156937279Y-109442333D01*
X156788034Y-109442333D01*
X156786797Y-109432509D01*
X156795399Y-109377483D01*
X156819541Y-109315351D01*
X156820337Y-109313658D01*
X156860788Y-109244236D01*
X156911473Y-109187638D01*
X156974198Y-109143070D01*
X157050774Y-109109741D01*
X157143009Y-109086861D01*
X157252712Y-109073636D01*
X157381691Y-109069275D01*
X157385263Y-109069270D01*
X157445283Y-109069410D01*
X157487214Y-109070446D01*
X157515328Y-109073040D01*
X157533897Y-109077853D01*
X157547194Y-109085544D01*
X157559491Y-109096776D01*
X157587200Y-109124485D01*
X157587200Y-109433920D01*
X157587175Y-109495526D01*
X157586950Y-109574311D01*
X157586332Y-109635021D01*
X157585775Y-109656089D01*
X157585133Y-109680396D01*
G37*
X164676817Y-109254427D02*
X164676870Y-109335041D01*
X164676622Y-109435956D01*
X164676583Y-109511617D01*
X164676328Y-109589526D01*
X164675684Y-109649536D01*
X164674480Y-109694264D01*
X164672543Y-109726326D01*
X164669703Y-109748340D01*
X164665788Y-109762924D01*
X164660626Y-109772694D01*
X164654045Y-109780267D01*
X164647077Y-109786501D01*
X164634079Y-109793801D01*
X164614931Y-109798554D01*
X164585528Y-109801292D01*
X164541762Y-109802545D01*
X164479528Y-109802845D01*
X164430582Y-109802469D01*
X164323722Y-109798041D01*
X164234494Y-109787953D01*
X164159696Y-109771365D01*
X164096125Y-109747435D01*
X164040579Y-109715321D01*
X163989854Y-109674182D01*
X163983866Y-109668330D01*
X163946999Y-109619821D01*
X163915899Y-109559013D01*
X163894417Y-109494769D01*
X163889136Y-109456026D01*
X164036353Y-109456026D01*
X164054635Y-109506961D01*
X164084305Y-109552878D01*
X164131002Y-109595287D01*
X164192392Y-109625090D01*
X164271538Y-109644226D01*
X164273028Y-109644464D01*
X164321999Y-109650256D01*
X164380693Y-109654396D01*
X164436734Y-109656004D01*
X164529867Y-109656089D01*
X164529867Y-109215822D01*
X164453667Y-109215808D01*
X164450639Y-109215817D01*
X164399519Y-109217782D01*
X164339416Y-109222507D01*
X164282708Y-109229035D01*
X164232750Y-109238331D01*
X164157998Y-109264600D01*
X164100489Y-109303899D01*
X164058988Y-109356933D01*
X164037771Y-109408200D01*
X164036353Y-109456026D01*
X163889136Y-109456026D01*
X163886400Y-109435956D01*
X163887679Y-109414739D01*
X163899991Y-109357323D01*
X163922520Y-109297413D01*
X163951750Y-109243363D01*
X163984167Y-109203532D01*
X164003708Y-109186510D01*
X164058420Y-109147322D01*
X164118723Y-109117193D01*
X164187919Y-109095232D01*
X164269311Y-109080550D01*
X164366200Y-109072259D01*
X164481889Y-109069467D01*
X164521371Y-109069066D01*
X164567082Y-109068653D01*
X164602883Y-109070457D01*
X164629974Y-109076739D01*
X164649556Y-109089759D01*
X164662830Y-109111778D01*
X164670998Y-109145055D01*
X164675260Y-109191851D01*
X164675857Y-109215822D01*
X164676817Y-109254427D01*
G36*
X164676817Y-109254427D02*
G01*
X164676870Y-109335041D01*
X164676622Y-109435956D01*
X164676583Y-109511617D01*
X164676328Y-109589526D01*
X164675684Y-109649536D01*
X164674480Y-109694264D01*
X164672543Y-109726326D01*
X164669703Y-109748340D01*
X164665788Y-109762924D01*
X164660626Y-109772694D01*
X164654045Y-109780267D01*
X164647077Y-109786501D01*
X164634079Y-109793801D01*
X164614931Y-109798554D01*
X164585528Y-109801292D01*
X164541762Y-109802545D01*
X164479528Y-109802845D01*
X164430582Y-109802469D01*
X164323722Y-109798041D01*
X164234494Y-109787953D01*
X164159696Y-109771365D01*
X164096125Y-109747435D01*
X164040579Y-109715321D01*
X163989854Y-109674182D01*
X163983866Y-109668330D01*
X163946999Y-109619821D01*
X163915899Y-109559013D01*
X163894417Y-109494769D01*
X163889136Y-109456026D01*
X164036353Y-109456026D01*
X164054635Y-109506961D01*
X164084305Y-109552878D01*
X164131002Y-109595287D01*
X164192392Y-109625090D01*
X164271538Y-109644226D01*
X164273028Y-109644464D01*
X164321999Y-109650256D01*
X164380693Y-109654396D01*
X164436734Y-109656004D01*
X164529867Y-109656089D01*
X164529867Y-109215822D01*
X164453667Y-109215808D01*
X164450639Y-109215817D01*
X164399519Y-109217782D01*
X164339416Y-109222507D01*
X164282708Y-109229035D01*
X164232750Y-109238331D01*
X164157998Y-109264600D01*
X164100489Y-109303899D01*
X164058988Y-109356933D01*
X164037771Y-109408200D01*
X164036353Y-109456026D01*
X163889136Y-109456026D01*
X163886400Y-109435956D01*
X163887679Y-109414739D01*
X163899991Y-109357323D01*
X163922520Y-109297413D01*
X163951750Y-109243363D01*
X163984167Y-109203532D01*
X164003708Y-109186510D01*
X164058420Y-109147322D01*
X164118723Y-109117193D01*
X164187919Y-109095232D01*
X164269311Y-109080550D01*
X164366200Y-109072259D01*
X164481889Y-109069467D01*
X164521371Y-109069066D01*
X164567082Y-109068653D01*
X164602883Y-109070457D01*
X164629974Y-109076739D01*
X164649556Y-109089759D01*
X164662830Y-109111778D01*
X164670998Y-109145055D01*
X164675260Y-109191851D01*
X164675857Y-109215822D01*
X164676817Y-109254427D01*
G37*
X159731893Y-109067892D02*
X159743301Y-109074029D01*
X159753850Y-109084691D01*
X159765136Y-109098811D01*
X159769589Y-109104772D01*
X159775588Y-109115268D01*
X159780167Y-109129093D01*
X159783519Y-109148998D01*
X159785833Y-109177732D01*
X159787301Y-109218045D01*
X159788113Y-109272687D01*
X159788460Y-109344407D01*
X159788534Y-109435956D01*
X159788511Y-109494486D01*
X159788292Y-109573573D01*
X159787683Y-109634516D01*
X159786492Y-109680062D01*
X159784529Y-109712963D01*
X159781603Y-109735968D01*
X159777523Y-109751826D01*
X159772097Y-109763286D01*
X159765136Y-109773100D01*
X159734708Y-109797493D01*
X159699765Y-109800372D01*
X159662784Y-109781282D01*
X159658600Y-109777807D01*
X159650424Y-109769279D01*
X159644364Y-109757728D01*
X159639981Y-109739896D01*
X159636839Y-109712524D01*
X159634502Y-109672354D01*
X159632531Y-109616128D01*
X159630489Y-109540589D01*
X159624845Y-109321458D01*
X159359556Y-109562099D01*
X159285722Y-109628875D01*
X159220542Y-109686991D01*
X159168348Y-109731949D01*
X159127273Y-109764871D01*
X159095455Y-109786879D01*
X159071026Y-109799094D01*
X159052124Y-109802639D01*
X159036883Y-109798636D01*
X159023439Y-109788207D01*
X159009927Y-109772474D01*
X159003682Y-109763991D01*
X158998050Y-109753413D01*
X158993839Y-109739255D01*
X158990887Y-109718803D01*
X158989032Y-109689342D01*
X158988113Y-109648161D01*
X158987968Y-109592544D01*
X158988435Y-109519779D01*
X158989352Y-109427151D01*
X158992667Y-109112199D01*
X159019318Y-109090633D01*
X159045383Y-109074441D01*
X159078241Y-109071670D01*
X159112772Y-109090623D01*
X159117084Y-109094208D01*
X159125216Y-109102737D01*
X159131245Y-109114329D01*
X159135606Y-109132235D01*
X159138734Y-109159706D01*
X159141063Y-109199994D01*
X159143029Y-109256351D01*
X159145067Y-109332029D01*
X159150711Y-109551878D01*
X159331334Y-109388084D01*
X159418072Y-109309451D01*
X159493843Y-109241058D01*
X159555980Y-109185708D01*
X159606078Y-109142338D01*
X159645735Y-109109881D01*
X159676548Y-109087273D01*
X159700114Y-109073448D01*
X159718030Y-109067343D01*
X159731893Y-109067892D01*
G36*
X159731893Y-109067892D02*
G01*
X159743301Y-109074029D01*
X159753850Y-109084691D01*
X159765136Y-109098811D01*
X159769589Y-109104772D01*
X159775588Y-109115268D01*
X159780167Y-109129093D01*
X159783519Y-109148998D01*
X159785833Y-109177732D01*
X159787301Y-109218045D01*
X159788113Y-109272687D01*
X159788460Y-109344407D01*
X159788534Y-109435956D01*
X159788511Y-109494486D01*
X159788292Y-109573573D01*
X159787683Y-109634516D01*
X159786492Y-109680062D01*
X159784529Y-109712963D01*
X159781603Y-109735968D01*
X159777523Y-109751826D01*
X159772097Y-109763286D01*
X159765136Y-109773100D01*
X159734708Y-109797493D01*
X159699765Y-109800372D01*
X159662784Y-109781282D01*
X159658600Y-109777807D01*
X159650424Y-109769279D01*
X159644364Y-109757728D01*
X159639981Y-109739896D01*
X159636839Y-109712524D01*
X159634502Y-109672354D01*
X159632531Y-109616128D01*
X159630489Y-109540589D01*
X159624845Y-109321458D01*
X159359556Y-109562099D01*
X159285722Y-109628875D01*
X159220542Y-109686991D01*
X159168348Y-109731949D01*
X159127273Y-109764871D01*
X159095455Y-109786879D01*
X159071026Y-109799094D01*
X159052124Y-109802639D01*
X159036883Y-109798636D01*
X159023439Y-109788207D01*
X159009927Y-109772474D01*
X159003682Y-109763991D01*
X158998050Y-109753413D01*
X158993839Y-109739255D01*
X158990887Y-109718803D01*
X158989032Y-109689342D01*
X158988113Y-109648161D01*
X158987968Y-109592544D01*
X158988435Y-109519779D01*
X158989352Y-109427151D01*
X158992667Y-109112199D01*
X159019318Y-109090633D01*
X159045383Y-109074441D01*
X159078241Y-109071670D01*
X159112772Y-109090623D01*
X159117084Y-109094208D01*
X159125216Y-109102737D01*
X159131245Y-109114329D01*
X159135606Y-109132235D01*
X159138734Y-109159706D01*
X159141063Y-109199994D01*
X159143029Y-109256351D01*
X159145067Y-109332029D01*
X159150711Y-109551878D01*
X159331334Y-109388084D01*
X159418072Y-109309451D01*
X159493843Y-109241058D01*
X159555980Y-109185708D01*
X159606078Y-109142338D01*
X159645735Y-109109881D01*
X159676548Y-109087273D01*
X159700114Y-109073448D01*
X159718030Y-109067343D01*
X159731893Y-109067892D01*
G37*
X160529150Y-109074179D02*
X160635157Y-109090494D01*
X160728969Y-109118545D01*
X160807765Y-109157452D01*
X160868719Y-109206334D01*
X160894789Y-109239195D01*
X160924297Y-109288394D01*
X160949568Y-109342252D01*
X160967218Y-109393419D01*
X160973858Y-109434544D01*
X160972298Y-109454259D01*
X160959357Y-109505592D01*
X160936194Y-109562118D01*
X160906302Y-109616035D01*
X160873173Y-109659539D01*
X160862977Y-109669887D01*
X160795892Y-109721662D01*
X160715766Y-109761554D01*
X160629556Y-109785956D01*
X160574592Y-109794068D01*
X160481139Y-109800673D01*
X160391358Y-109798586D01*
X160308869Y-109788340D01*
X160237286Y-109770470D01*
X160180228Y-109745508D01*
X160141311Y-109713988D01*
X160139936Y-109712012D01*
X160132848Y-109686786D01*
X160128609Y-109639535D01*
X160127200Y-109570071D01*
X160128060Y-109507838D01*
X160132780Y-109460456D01*
X160144470Y-109428353D01*
X160166239Y-109408800D01*
X160201198Y-109399070D01*
X160252456Y-109396433D01*
X160323123Y-109398161D01*
X160371743Y-109401173D01*
X160421939Y-109409366D01*
X160454433Y-109423419D01*
X160471892Y-109444654D01*
X160476983Y-109474394D01*
X160476877Y-109478936D01*
X160468175Y-109513730D01*
X160444165Y-109537147D01*
X160402900Y-109550347D01*
X160342431Y-109554489D01*
X160273956Y-109554489D01*
X160273956Y-109592841D01*
X160274006Y-109601976D01*
X160276227Y-109619227D01*
X160285494Y-109629521D01*
X160306875Y-109636459D01*
X160345436Y-109643641D01*
X160350910Y-109644575D01*
X160447860Y-109654478D01*
X160537852Y-109651559D01*
X160618760Y-109636829D01*
X160688459Y-109611299D01*
X160744824Y-109575978D01*
X160785729Y-109531879D01*
X160809051Y-109480012D01*
X160812663Y-109421388D01*
X160807145Y-109392494D01*
X160780461Y-109336604D01*
X160734273Y-109290945D01*
X160669291Y-109256108D01*
X160586229Y-109232690D01*
X160561555Y-109228241D01*
X160472226Y-109217742D01*
X160392419Y-109218971D01*
X160314326Y-109231906D01*
X160279183Y-109238696D01*
X160233745Y-109239713D01*
X160202430Y-109227182D01*
X160182277Y-109200395D01*
X160175893Y-109172148D01*
X160185379Y-109140924D01*
X160194708Y-109127499D01*
X160228943Y-109103967D01*
X160281565Y-109086095D01*
X160350081Y-109074599D01*
X160432000Y-109070192D01*
X160529150Y-109074179D01*
G36*
X160529150Y-109074179D02*
G01*
X160635157Y-109090494D01*
X160728969Y-109118545D01*
X160807765Y-109157452D01*
X160868719Y-109206334D01*
X160894789Y-109239195D01*
X160924297Y-109288394D01*
X160949568Y-109342252D01*
X160967218Y-109393419D01*
X160973858Y-109434544D01*
X160972298Y-109454259D01*
X160959357Y-109505592D01*
X160936194Y-109562118D01*
X160906302Y-109616035D01*
X160873173Y-109659539D01*
X160862977Y-109669887D01*
X160795892Y-109721662D01*
X160715766Y-109761554D01*
X160629556Y-109785956D01*
X160574592Y-109794068D01*
X160481139Y-109800673D01*
X160391358Y-109798586D01*
X160308869Y-109788340D01*
X160237286Y-109770470D01*
X160180228Y-109745508D01*
X160141311Y-109713988D01*
X160139936Y-109712012D01*
X160132848Y-109686786D01*
X160128609Y-109639535D01*
X160127200Y-109570071D01*
X160128060Y-109507838D01*
X160132780Y-109460456D01*
X160144470Y-109428353D01*
X160166239Y-109408800D01*
X160201198Y-109399070D01*
X160252456Y-109396433D01*
X160323123Y-109398161D01*
X160371743Y-109401173D01*
X160421939Y-109409366D01*
X160454433Y-109423419D01*
X160471892Y-109444654D01*
X160476983Y-109474394D01*
X160476877Y-109478936D01*
X160468175Y-109513730D01*
X160444165Y-109537147D01*
X160402900Y-109550347D01*
X160342431Y-109554489D01*
X160273956Y-109554489D01*
X160273956Y-109592841D01*
X160274006Y-109601976D01*
X160276227Y-109619227D01*
X160285494Y-109629521D01*
X160306875Y-109636459D01*
X160345436Y-109643641D01*
X160350910Y-109644575D01*
X160447860Y-109654478D01*
X160537852Y-109651559D01*
X160618760Y-109636829D01*
X160688459Y-109611299D01*
X160744824Y-109575978D01*
X160785729Y-109531879D01*
X160809051Y-109480012D01*
X160812663Y-109421388D01*
X160807145Y-109392494D01*
X160780461Y-109336604D01*
X160734273Y-109290945D01*
X160669291Y-109256108D01*
X160586229Y-109232690D01*
X160561555Y-109228241D01*
X160472226Y-109217742D01*
X160392419Y-109218971D01*
X160314326Y-109231906D01*
X160279183Y-109238696D01*
X160233745Y-109239713D01*
X160202430Y-109227182D01*
X160182277Y-109200395D01*
X160175893Y-109172148D01*
X160185379Y-109140924D01*
X160194708Y-109127499D01*
X160228943Y-109103967D01*
X160281565Y-109086095D01*
X160350081Y-109074599D01*
X160432000Y-109070192D01*
X160529150Y-109074179D01*
G37*
X158579803Y-109098811D02*
X158584752Y-109105495D01*
X158590596Y-109116066D01*
X158595057Y-109130153D01*
X158598321Y-109150478D01*
X158600574Y-109179765D01*
X158602002Y-109220737D01*
X158602792Y-109276117D01*
X158603129Y-109348628D01*
X158603200Y-109440994D01*
X158603171Y-109506911D01*
X158602939Y-109585228D01*
X158602319Y-109645496D01*
X158601126Y-109690393D01*
X158599179Y-109722602D01*
X158596294Y-109744800D01*
X158592288Y-109759669D01*
X158586979Y-109769889D01*
X158580183Y-109778138D01*
X158575668Y-109782795D01*
X158567438Y-109789282D01*
X158556078Y-109794194D01*
X158538810Y-109797749D01*
X158512855Y-109800167D01*
X158475436Y-109801667D01*
X158423773Y-109802467D01*
X158355089Y-109802787D01*
X158266606Y-109802845D01*
X158246931Y-109802838D01*
X158159906Y-109802572D01*
X158092254Y-109801806D01*
X158041299Y-109800392D01*
X158004367Y-109798180D01*
X157978783Y-109795022D01*
X157961871Y-109790769D01*
X157950957Y-109785271D01*
X157940464Y-109775285D01*
X157927203Y-109744168D01*
X157928386Y-109708280D01*
X157944550Y-109676733D01*
X157946739Y-109674457D01*
X157955427Y-109668189D01*
X157968769Y-109663523D01*
X157989752Y-109660227D01*
X158021363Y-109658068D01*
X158066590Y-109656814D01*
X158128420Y-109656231D01*
X158209839Y-109656089D01*
X158456445Y-109656089D01*
X158456445Y-109498045D01*
X158294006Y-109498045D01*
X158258338Y-109497964D01*
X158202568Y-109497167D01*
X158163430Y-109495162D01*
X158136976Y-109491521D01*
X158119259Y-109485812D01*
X158106329Y-109477607D01*
X158102686Y-109474423D01*
X158084278Y-109443448D01*
X158083644Y-109407112D01*
X158101183Y-109373493D01*
X158101245Y-109373424D01*
X158110916Y-109364798D01*
X158124209Y-109358742D01*
X158144917Y-109354811D01*
X158176828Y-109352556D01*
X158223734Y-109351531D01*
X158289424Y-109351289D01*
X158457571Y-109351289D01*
X158454186Y-109286378D01*
X158450800Y-109221467D01*
X158208723Y-109218414D01*
X158183707Y-109218086D01*
X158102087Y-109216606D01*
X158039768Y-109214222D01*
X157994154Y-109210227D01*
X157962652Y-109203913D01*
X157942667Y-109194574D01*
X157931604Y-109181503D01*
X157926869Y-109163992D01*
X157925867Y-109141335D01*
X157925873Y-109138970D01*
X157927027Y-109118939D01*
X157931824Y-109103146D01*
X157942632Y-109091090D01*
X157961817Y-109082267D01*
X157991745Y-109076175D01*
X158034783Y-109072311D01*
X158093299Y-109070174D01*
X158169657Y-109069260D01*
X158266226Y-109069067D01*
X158556406Y-109069067D01*
X158579803Y-109098811D01*
G36*
X158579803Y-109098811D02*
G01*
X158584752Y-109105495D01*
X158590596Y-109116066D01*
X158595057Y-109130153D01*
X158598321Y-109150478D01*
X158600574Y-109179765D01*
X158602002Y-109220737D01*
X158602792Y-109276117D01*
X158603129Y-109348628D01*
X158603200Y-109440994D01*
X158603171Y-109506911D01*
X158602939Y-109585228D01*
X158602319Y-109645496D01*
X158601126Y-109690393D01*
X158599179Y-109722602D01*
X158596294Y-109744800D01*
X158592288Y-109759669D01*
X158586979Y-109769889D01*
X158580183Y-109778138D01*
X158575668Y-109782795D01*
X158567438Y-109789282D01*
X158556078Y-109794194D01*
X158538810Y-109797749D01*
X158512855Y-109800167D01*
X158475436Y-109801667D01*
X158423773Y-109802467D01*
X158355089Y-109802787D01*
X158266606Y-109802845D01*
X158246931Y-109802838D01*
X158159906Y-109802572D01*
X158092254Y-109801806D01*
X158041299Y-109800392D01*
X158004367Y-109798180D01*
X157978783Y-109795022D01*
X157961871Y-109790769D01*
X157950957Y-109785271D01*
X157940464Y-109775285D01*
X157927203Y-109744168D01*
X157928386Y-109708280D01*
X157944550Y-109676733D01*
X157946739Y-109674457D01*
X157955427Y-109668189D01*
X157968769Y-109663523D01*
X157989752Y-109660227D01*
X158021363Y-109658068D01*
X158066590Y-109656814D01*
X158128420Y-109656231D01*
X158209839Y-109656089D01*
X158456445Y-109656089D01*
X158456445Y-109498045D01*
X158294006Y-109498045D01*
X158258338Y-109497964D01*
X158202568Y-109497167D01*
X158163430Y-109495162D01*
X158136976Y-109491521D01*
X158119259Y-109485812D01*
X158106329Y-109477607D01*
X158102686Y-109474423D01*
X158084278Y-109443448D01*
X158083644Y-109407112D01*
X158101183Y-109373493D01*
X158101245Y-109373424D01*
X158110916Y-109364798D01*
X158124209Y-109358742D01*
X158144917Y-109354811D01*
X158176828Y-109352556D01*
X158223734Y-109351531D01*
X158289424Y-109351289D01*
X158457571Y-109351289D01*
X158454186Y-109286378D01*
X158450800Y-109221467D01*
X158208723Y-109218414D01*
X158183707Y-109218086D01*
X158102087Y-109216606D01*
X158039768Y-109214222D01*
X157994154Y-109210227D01*
X157962652Y-109203913D01*
X157942667Y-109194574D01*
X157931604Y-109181503D01*
X157926869Y-109163992D01*
X157925867Y-109141335D01*
X157925873Y-109138970D01*
X157927027Y-109118939D01*
X157931824Y-109103146D01*
X157942632Y-109091090D01*
X157961817Y-109082267D01*
X157991745Y-109076175D01*
X158034783Y-109072311D01*
X158093299Y-109070174D01*
X158169657Y-109069260D01*
X158266226Y-109069067D01*
X158556406Y-109069067D01*
X158579803Y-109098811D01*
G37*
X163256734Y-109069083D02*
X163333831Y-109069275D01*
X163392777Y-109069860D01*
X163436364Y-109071051D01*
X163467383Y-109073064D01*
X163488625Y-109076112D01*
X163502882Y-109080409D01*
X163512945Y-109086172D01*
X163521606Y-109093612D01*
X163523391Y-109095293D01*
X163530635Y-109102832D01*
X163536277Y-109111850D01*
X163540517Y-109124984D01*
X163543556Y-109144872D01*
X163545594Y-109174151D01*
X163546830Y-109215458D01*
X163547465Y-109271431D01*
X163547700Y-109344707D01*
X163547734Y-109437923D01*
X163547697Y-109510713D01*
X163547448Y-109588889D01*
X163546812Y-109649103D01*
X163545615Y-109693982D01*
X163543684Y-109726152D01*
X163540846Y-109748239D01*
X163536927Y-109762870D01*
X163531755Y-109772670D01*
X163525156Y-109780267D01*
X163521822Y-109783444D01*
X163513300Y-109789554D01*
X163501298Y-109794229D01*
X163483087Y-109797659D01*
X163455940Y-109800036D01*
X163417129Y-109801552D01*
X163363924Y-109802398D01*
X163293598Y-109802765D01*
X163203422Y-109802845D01*
X163161314Y-109802833D01*
X163080167Y-109802651D01*
X163017675Y-109802098D01*
X162971109Y-109800982D01*
X162937741Y-109799113D01*
X162914844Y-109796298D01*
X162899688Y-109792346D01*
X162889546Y-109787066D01*
X162881689Y-109780267D01*
X162866963Y-109758667D01*
X162859111Y-109729467D01*
X162864610Y-109705560D01*
X162881689Y-109678667D01*
X162886668Y-109674059D01*
X162896443Y-109667772D01*
X162910559Y-109663146D01*
X162932054Y-109659930D01*
X162963968Y-109657870D01*
X163009342Y-109656712D01*
X163071213Y-109656202D01*
X163152622Y-109656089D01*
X163400978Y-109656089D01*
X163400978Y-109498045D01*
X163239801Y-109498045D01*
X163203983Y-109497899D01*
X163138359Y-109496176D01*
X163091118Y-109491741D01*
X163059383Y-109483637D01*
X163040277Y-109470906D01*
X163030923Y-109452592D01*
X163028445Y-109427738D01*
X163029242Y-109407482D01*
X163034494Y-109385656D01*
X163047288Y-109370304D01*
X163070628Y-109360309D01*
X163107517Y-109354553D01*
X163160959Y-109351919D01*
X163233958Y-109351289D01*
X163402105Y-109351289D01*
X163398719Y-109286378D01*
X163395334Y-109221467D01*
X163147617Y-109218418D01*
X163085026Y-109217539D01*
X163016565Y-109216095D01*
X162965661Y-109214164D01*
X162929408Y-109211514D01*
X162904901Y-109207910D01*
X162889235Y-109203121D01*
X162879506Y-109196913D01*
X162873491Y-109190510D01*
X162860482Y-109158828D01*
X162864043Y-109123142D01*
X162883818Y-109092084D01*
X162887069Y-109089161D01*
X162896049Y-109082810D01*
X162908153Y-109077957D01*
X162926159Y-109074403D01*
X162952847Y-109071946D01*
X162990997Y-109070385D01*
X163043386Y-109069518D01*
X163112794Y-109069146D01*
X163202001Y-109069067D01*
X163256734Y-109069083D01*
G36*
X163256734Y-109069083D02*
G01*
X163333831Y-109069275D01*
X163392777Y-109069860D01*
X163436364Y-109071051D01*
X163467383Y-109073064D01*
X163488625Y-109076112D01*
X163502882Y-109080409D01*
X163512945Y-109086172D01*
X163521606Y-109093612D01*
X163523391Y-109095293D01*
X163530635Y-109102832D01*
X163536277Y-109111850D01*
X163540517Y-109124984D01*
X163543556Y-109144872D01*
X163545594Y-109174151D01*
X163546830Y-109215458D01*
X163547465Y-109271431D01*
X163547700Y-109344707D01*
X163547734Y-109437923D01*
X163547697Y-109510713D01*
X163547448Y-109588889D01*
X163546812Y-109649103D01*
X163545615Y-109693982D01*
X163543684Y-109726152D01*
X163540846Y-109748239D01*
X163536927Y-109762870D01*
X163531755Y-109772670D01*
X163525156Y-109780267D01*
X163521822Y-109783444D01*
X163513300Y-109789554D01*
X163501298Y-109794229D01*
X163483087Y-109797659D01*
X163455940Y-109800036D01*
X163417129Y-109801552D01*
X163363924Y-109802398D01*
X163293598Y-109802765D01*
X163203422Y-109802845D01*
X163161314Y-109802833D01*
X163080167Y-109802651D01*
X163017675Y-109802098D01*
X162971109Y-109800982D01*
X162937741Y-109799113D01*
X162914844Y-109796298D01*
X162899688Y-109792346D01*
X162889546Y-109787066D01*
X162881689Y-109780267D01*
X162866963Y-109758667D01*
X162859111Y-109729467D01*
X162864610Y-109705560D01*
X162881689Y-109678667D01*
X162886668Y-109674059D01*
X162896443Y-109667772D01*
X162910559Y-109663146D01*
X162932054Y-109659930D01*
X162963968Y-109657870D01*
X163009342Y-109656712D01*
X163071213Y-109656202D01*
X163152622Y-109656089D01*
X163400978Y-109656089D01*
X163400978Y-109498045D01*
X163239801Y-109498045D01*
X163203983Y-109497899D01*
X163138359Y-109496176D01*
X163091118Y-109491741D01*
X163059383Y-109483637D01*
X163040277Y-109470906D01*
X163030923Y-109452592D01*
X163028445Y-109427738D01*
X163029242Y-109407482D01*
X163034494Y-109385656D01*
X163047288Y-109370304D01*
X163070628Y-109360309D01*
X163107517Y-109354553D01*
X163160959Y-109351919D01*
X163233958Y-109351289D01*
X163402105Y-109351289D01*
X163398719Y-109286378D01*
X163395334Y-109221467D01*
X163147617Y-109218418D01*
X163085026Y-109217539D01*
X163016565Y-109216095D01*
X162965661Y-109214164D01*
X162929408Y-109211514D01*
X162904901Y-109207910D01*
X162889235Y-109203121D01*
X162879506Y-109196913D01*
X162873491Y-109190510D01*
X162860482Y-109158828D01*
X162864043Y-109123142D01*
X162883818Y-109092084D01*
X162887069Y-109089161D01*
X162896049Y-109082810D01*
X162908153Y-109077957D01*
X162926159Y-109074403D01*
X162952847Y-109071946D01*
X162990997Y-109070385D01*
X163043386Y-109069518D01*
X163112794Y-109069146D01*
X163202001Y-109069067D01*
X163256734Y-109069083D01*
G37*
X154689702Y-109078478D02*
X154707663Y-109096989D01*
X154728263Y-109128071D01*
X154753095Y-109173756D01*
X154783750Y-109236078D01*
X154821820Y-109317071D01*
X154836454Y-109348454D01*
X154866203Y-109411638D01*
X154892297Y-109466244D01*
X154913292Y-109509290D01*
X154927739Y-109537793D01*
X154934191Y-109548770D01*
X154935550Y-109548189D01*
X154945542Y-109534242D01*
X154962833Y-109504704D01*
X154985430Y-109463087D01*
X155011338Y-109412903D01*
X155027311Y-109381414D01*
X155056261Y-109326061D01*
X155078749Y-109287044D01*
X155096965Y-109261566D01*
X155113096Y-109246831D01*
X155129330Y-109240042D01*
X155147857Y-109238400D01*
X155158360Y-109238875D01*
X155174476Y-109243082D01*
X155189790Y-109253946D01*
X155206388Y-109274219D01*
X155226357Y-109306654D01*
X155251783Y-109354004D01*
X155284752Y-109419022D01*
X155294485Y-109438277D01*
X155318943Y-109484946D01*
X155339178Y-109521109D01*
X155353311Y-109543497D01*
X155359460Y-109548845D01*
X155360827Y-109545573D01*
X155370202Y-109524664D01*
X155387062Y-109487725D01*
X155409979Y-109437874D01*
X155437520Y-109378226D01*
X155468255Y-109311898D01*
X155494970Y-109254677D01*
X155524593Y-109192688D01*
X155547664Y-109146949D01*
X155565643Y-109114908D01*
X155579990Y-109094014D01*
X155592166Y-109081718D01*
X155603632Y-109075466D01*
X155613042Y-109072574D01*
X155638147Y-109072425D01*
X155665290Y-109087768D01*
X155666590Y-109088753D01*
X155688674Y-109111388D01*
X155699723Y-109133613D01*
X155699769Y-109134253D01*
X155695228Y-109151915D01*
X155682364Y-109186481D01*
X155662605Y-109234826D01*
X155637381Y-109293825D01*
X155608119Y-109360355D01*
X155576250Y-109431291D01*
X155543201Y-109503507D01*
X155510401Y-109573880D01*
X155479280Y-109639285D01*
X155451265Y-109696597D01*
X155427786Y-109742692D01*
X155410272Y-109774446D01*
X155400151Y-109788733D01*
X155365743Y-109802102D01*
X155324046Y-109795741D01*
X155318681Y-109791044D01*
X155302852Y-109768893D01*
X155280650Y-109732132D01*
X155254233Y-109684415D01*
X155225760Y-109629393D01*
X155145986Y-109470150D01*
X155072799Y-109616742D01*
X155063103Y-109636032D01*
X155036125Y-109688380D01*
X155012096Y-109733170D01*
X154993332Y-109766154D01*
X154982146Y-109783089D01*
X154981000Y-109784332D01*
X154952879Y-109799619D01*
X154917817Y-109801302D01*
X154886776Y-109788733D01*
X154884350Y-109785884D01*
X154872090Y-109765259D01*
X154852352Y-109727708D01*
X154826448Y-109675880D01*
X154795685Y-109612423D01*
X154761375Y-109539985D01*
X154724825Y-109461216D01*
X154704585Y-109417093D01*
X154667812Y-109336365D01*
X154639355Y-109272687D01*
X154618331Y-109223752D01*
X154603854Y-109187257D01*
X154595039Y-109160895D01*
X154591004Y-109142361D01*
X154590862Y-109129352D01*
X154593730Y-109119561D01*
X154608387Y-109098678D01*
X154634990Y-109078377D01*
X154635745Y-109078035D01*
X154655335Y-109071034D01*
X154672790Y-109070504D01*
X154689702Y-109078478D01*
G36*
X154689702Y-109078478D02*
G01*
X154707663Y-109096989D01*
X154728263Y-109128071D01*
X154753095Y-109173756D01*
X154783750Y-109236078D01*
X154821820Y-109317071D01*
X154836454Y-109348454D01*
X154866203Y-109411638D01*
X154892297Y-109466244D01*
X154913292Y-109509290D01*
X154927739Y-109537793D01*
X154934191Y-109548770D01*
X154935550Y-109548189D01*
X154945542Y-109534242D01*
X154962833Y-109504704D01*
X154985430Y-109463087D01*
X155011338Y-109412903D01*
X155027311Y-109381414D01*
X155056261Y-109326061D01*
X155078749Y-109287044D01*
X155096965Y-109261566D01*
X155113096Y-109246831D01*
X155129330Y-109240042D01*
X155147857Y-109238400D01*
X155158360Y-109238875D01*
X155174476Y-109243082D01*
X155189790Y-109253946D01*
X155206388Y-109274219D01*
X155226357Y-109306654D01*
X155251783Y-109354004D01*
X155284752Y-109419022D01*
X155294485Y-109438277D01*
X155318943Y-109484946D01*
X155339178Y-109521109D01*
X155353311Y-109543497D01*
X155359460Y-109548845D01*
X155360827Y-109545573D01*
X155370202Y-109524664D01*
X155387062Y-109487725D01*
X155409979Y-109437874D01*
X155437520Y-109378226D01*
X155468255Y-109311898D01*
X155494970Y-109254677D01*
X155524593Y-109192688D01*
X155547664Y-109146949D01*
X155565643Y-109114908D01*
X155579990Y-109094014D01*
X155592166Y-109081718D01*
X155603632Y-109075466D01*
X155613042Y-109072574D01*
X155638147Y-109072425D01*
X155665290Y-109087768D01*
X155666590Y-109088753D01*
X155688674Y-109111388D01*
X155699723Y-109133613D01*
X155699769Y-109134253D01*
X155695228Y-109151915D01*
X155682364Y-109186481D01*
X155662605Y-109234826D01*
X155637381Y-109293825D01*
X155608119Y-109360355D01*
X155576250Y-109431291D01*
X155543201Y-109503507D01*
X155510401Y-109573880D01*
X155479280Y-109639285D01*
X155451265Y-109696597D01*
X155427786Y-109742692D01*
X155410272Y-109774446D01*
X155400151Y-109788733D01*
X155365743Y-109802102D01*
X155324046Y-109795741D01*
X155318681Y-109791044D01*
X155302852Y-109768893D01*
X155280650Y-109732132D01*
X155254233Y-109684415D01*
X155225760Y-109629393D01*
X155145986Y-109470150D01*
X155072799Y-109616742D01*
X155063103Y-109636032D01*
X155036125Y-109688380D01*
X155012096Y-109733170D01*
X154993332Y-109766154D01*
X154982146Y-109783089D01*
X154981000Y-109784332D01*
X154952879Y-109799619D01*
X154917817Y-109801302D01*
X154886776Y-109788733D01*
X154884350Y-109785884D01*
X154872090Y-109765259D01*
X154852352Y-109727708D01*
X154826448Y-109675880D01*
X154795685Y-109612423D01*
X154761375Y-109539985D01*
X154724825Y-109461216D01*
X154704585Y-109417093D01*
X154667812Y-109336365D01*
X154639355Y-109272687D01*
X154618331Y-109223752D01*
X154603854Y-109187257D01*
X154595039Y-109160895D01*
X154591004Y-109142361D01*
X154590862Y-109129352D01*
X154593730Y-109119561D01*
X154608387Y-109098678D01*
X154634990Y-109078377D01*
X154635745Y-109078035D01*
X154655335Y-109071034D01*
X154672790Y-109070504D01*
X154689702Y-109078478D01*
G37*
X162240853Y-109069936D02*
X162307100Y-109075366D01*
X162362400Y-109084964D01*
X162413283Y-109099825D01*
X162484595Y-109132958D01*
X162535752Y-109175640D01*
X162566575Y-109227705D01*
X162576889Y-109288983D01*
X162575952Y-109320232D01*
X162570160Y-109345029D01*
X162555353Y-109366699D01*
X162527380Y-109394049D01*
X162519402Y-109401378D01*
X162495692Y-109422281D01*
X162473298Y-109439251D01*
X162449265Y-109453205D01*
X162420637Y-109465056D01*
X162384460Y-109475720D01*
X162337780Y-109486111D01*
X162277641Y-109497146D01*
X162201090Y-109509738D01*
X162105171Y-109524804D01*
X162086808Y-109527838D01*
X162024478Y-109541458D01*
X161979260Y-109557192D01*
X161952976Y-109574263D01*
X161947447Y-109591897D01*
X161950068Y-109596168D01*
X161968000Y-109611233D01*
X161996126Y-109627867D01*
X162008926Y-109633857D01*
X162030224Y-109641050D01*
X162056610Y-109645827D01*
X162092454Y-109648646D01*
X162142128Y-109649964D01*
X162210000Y-109650237D01*
X162227785Y-109650164D01*
X162295406Y-109649053D01*
X162360345Y-109646828D01*
X162415970Y-109643762D01*
X162455651Y-109640127D01*
X162491162Y-109636059D01*
X162520415Y-109635276D01*
X162539315Y-109639876D01*
X162554429Y-109650551D01*
X162558085Y-109654144D01*
X162574427Y-109685918D01*
X162573107Y-109721572D01*
X162554150Y-109752190D01*
X162533780Y-109763796D01*
X162497796Y-109776491D01*
X162455372Y-109786541D01*
X162451922Y-109787140D01*
X162409252Y-109792356D01*
X162351866Y-109796730D01*
X162286849Y-109799818D01*
X162221289Y-109801177D01*
X162205057Y-109801218D01*
X162106744Y-109798741D01*
X162026692Y-109790735D01*
X161961513Y-109776203D01*
X161907817Y-109754149D01*
X161862216Y-109723576D01*
X161821323Y-109683486D01*
X161801202Y-109657259D01*
X161789576Y-109627712D01*
X161786667Y-109587995D01*
X161786808Y-109576026D01*
X161790681Y-109543345D01*
X161803065Y-109516819D01*
X161828230Y-109485971D01*
X161849442Y-109463831D01*
X161875838Y-109441285D01*
X161905555Y-109422917D01*
X161941785Y-109407661D01*
X161987717Y-109394449D01*
X162046544Y-109382214D01*
X162121456Y-109369889D01*
X162215645Y-109356406D01*
X162260957Y-109349396D01*
X162328911Y-109334837D01*
X162378047Y-109318337D01*
X162407614Y-109300439D01*
X162416864Y-109281685D01*
X162405048Y-109262615D01*
X162371416Y-109243771D01*
X162368370Y-109242557D01*
X162322011Y-109230479D01*
X162259361Y-109222279D01*
X162185927Y-109218119D01*
X162107217Y-109218161D01*
X162028739Y-109222569D01*
X161956000Y-109231505D01*
X161952073Y-109232154D01*
X161903257Y-109239861D01*
X161871005Y-109243473D01*
X161850008Y-109242876D01*
X161834954Y-109237954D01*
X161820534Y-109228596D01*
X161819364Y-109227725D01*
X161794847Y-109197351D01*
X161790054Y-109161850D01*
X161805860Y-109127269D01*
X161810406Y-109122813D01*
X161840020Y-109107673D01*
X161887002Y-109094550D01*
X161947306Y-109083750D01*
X162016888Y-109075581D01*
X162091703Y-109070351D01*
X162167706Y-109068367D01*
X162240853Y-109069936D01*
G36*
X162240853Y-109069936D02*
G01*
X162307100Y-109075366D01*
X162362400Y-109084964D01*
X162413283Y-109099825D01*
X162484595Y-109132958D01*
X162535752Y-109175640D01*
X162566575Y-109227705D01*
X162576889Y-109288983D01*
X162575952Y-109320232D01*
X162570160Y-109345029D01*
X162555353Y-109366699D01*
X162527380Y-109394049D01*
X162519402Y-109401378D01*
X162495692Y-109422281D01*
X162473298Y-109439251D01*
X162449265Y-109453205D01*
X162420637Y-109465056D01*
X162384460Y-109475720D01*
X162337780Y-109486111D01*
X162277641Y-109497146D01*
X162201090Y-109509738D01*
X162105171Y-109524804D01*
X162086808Y-109527838D01*
X162024478Y-109541458D01*
X161979260Y-109557192D01*
X161952976Y-109574263D01*
X161947447Y-109591897D01*
X161950068Y-109596168D01*
X161968000Y-109611233D01*
X161996126Y-109627867D01*
X162008926Y-109633857D01*
X162030224Y-109641050D01*
X162056610Y-109645827D01*
X162092454Y-109648646D01*
X162142128Y-109649964D01*
X162210000Y-109650237D01*
X162227785Y-109650164D01*
X162295406Y-109649053D01*
X162360345Y-109646828D01*
X162415970Y-109643762D01*
X162455651Y-109640127D01*
X162491162Y-109636059D01*
X162520415Y-109635276D01*
X162539315Y-109639876D01*
X162554429Y-109650551D01*
X162558085Y-109654144D01*
X162574427Y-109685918D01*
X162573107Y-109721572D01*
X162554150Y-109752190D01*
X162533780Y-109763796D01*
X162497796Y-109776491D01*
X162455372Y-109786541D01*
X162451922Y-109787140D01*
X162409252Y-109792356D01*
X162351866Y-109796730D01*
X162286849Y-109799818D01*
X162221289Y-109801177D01*
X162205057Y-109801218D01*
X162106744Y-109798741D01*
X162026692Y-109790735D01*
X161961513Y-109776203D01*
X161907817Y-109754149D01*
X161862216Y-109723576D01*
X161821323Y-109683486D01*
X161801202Y-109657259D01*
X161789576Y-109627712D01*
X161786667Y-109587995D01*
X161786808Y-109576026D01*
X161790681Y-109543345D01*
X161803065Y-109516819D01*
X161828230Y-109485971D01*
X161849442Y-109463831D01*
X161875838Y-109441285D01*
X161905555Y-109422917D01*
X161941785Y-109407661D01*
X161987717Y-109394449D01*
X162046544Y-109382214D01*
X162121456Y-109369889D01*
X162215645Y-109356406D01*
X162260957Y-109349396D01*
X162328911Y-109334837D01*
X162378047Y-109318337D01*
X162407614Y-109300439D01*
X162416864Y-109281685D01*
X162405048Y-109262615D01*
X162371416Y-109243771D01*
X162368370Y-109242557D01*
X162322011Y-109230479D01*
X162259361Y-109222279D01*
X162185927Y-109218119D01*
X162107217Y-109218161D01*
X162028739Y-109222569D01*
X161956000Y-109231505D01*
X161952073Y-109232154D01*
X161903257Y-109239861D01*
X161871005Y-109243473D01*
X161850008Y-109242876D01*
X161834954Y-109237954D01*
X161820534Y-109228596D01*
X161819364Y-109227725D01*
X161794847Y-109197351D01*
X161790054Y-109161850D01*
X161805860Y-109127269D01*
X161810406Y-109122813D01*
X161840020Y-109107673D01*
X161887002Y-109094550D01*
X161947306Y-109083750D01*
X162016888Y-109075581D01*
X162091703Y-109070351D01*
X162167706Y-109068367D01*
X162240853Y-109069936D01*
G37*
X158388711Y-104762033D02*
X158484268Y-104779523D01*
X158648558Y-104824564D01*
X158802589Y-104887656D01*
X158948509Y-104969915D01*
X159088466Y-105072457D01*
X159224608Y-105196399D01*
X159268473Y-105241661D01*
X159380758Y-105373865D01*
X159473972Y-105511832D01*
X159550719Y-105659750D01*
X159613603Y-105821803D01*
X159617420Y-105833391D01*
X159667507Y-106019392D01*
X159700899Y-106215521D01*
X159717584Y-106417568D01*
X159717551Y-106621325D01*
X159700791Y-106822581D01*
X159667292Y-107017128D01*
X159617044Y-107200756D01*
X159573190Y-107318053D01*
X159495348Y-107480951D01*
X159401828Y-107634866D01*
X159294822Y-107776671D01*
X159176519Y-107903239D01*
X159049111Y-108011441D01*
X158971606Y-108064120D01*
X158844725Y-108133750D01*
X158707243Y-108192468D01*
X158565716Y-108237587D01*
X158426702Y-108266422D01*
X158412597Y-108268106D01*
X158369153Y-108271434D01*
X158311723Y-108274275D01*
X158246122Y-108276373D01*
X158178167Y-108277468D01*
X158051378Y-108275140D01*
X157903673Y-108262136D01*
X157765779Y-108237133D01*
X157632014Y-108199318D01*
X157608562Y-108190889D01*
X157560612Y-108171408D01*
X157504140Y-108146473D01*
X157442379Y-108117722D01*
X157378563Y-108086790D01*
X157315926Y-108055315D01*
X157257703Y-108024934D01*
X157207127Y-107997283D01*
X157167433Y-107973999D01*
X157141854Y-107956718D01*
X157133625Y-107947079D01*
X157135076Y-107943984D01*
X157146250Y-107924079D01*
X157167134Y-107888420D01*
X157196265Y-107839459D01*
X157232181Y-107779646D01*
X157273420Y-107711433D01*
X157318517Y-107637271D01*
X157499785Y-107340008D01*
X157546315Y-107384539D01*
X157637723Y-107462865D01*
X157751334Y-107537439D01*
X157869122Y-107591474D01*
X157989559Y-107624290D01*
X158111117Y-107635211D01*
X158152585Y-107633868D01*
X158270080Y-107615612D01*
X158380089Y-107576617D01*
X158481430Y-107517670D01*
X158572921Y-107439557D01*
X158653380Y-107343064D01*
X158721627Y-107228978D01*
X158737908Y-107194724D01*
X158783982Y-107071240D01*
X158819106Y-106932918D01*
X158843197Y-106783561D01*
X158856173Y-106626973D01*
X158857949Y-106466956D01*
X158848443Y-106307314D01*
X158827572Y-106151850D01*
X158795252Y-106004366D01*
X158751399Y-105868667D01*
X158713982Y-105782076D01*
X158649185Y-105668688D01*
X158573772Y-105575070D01*
X158487418Y-105500959D01*
X158389795Y-105446094D01*
X158280577Y-105410212D01*
X158159439Y-105393051D01*
X158090038Y-105391880D01*
X157967168Y-105406141D01*
X157851664Y-105441241D01*
X157744953Y-105496682D01*
X157648464Y-105571964D01*
X157632720Y-105586440D01*
X157602150Y-105612962D01*
X157579809Y-105630138D01*
X157569691Y-105634787D01*
X157567706Y-105632597D01*
X157553241Y-105613721D01*
X157529400Y-105580397D01*
X157498029Y-105535380D01*
X157460974Y-105481425D01*
X157420083Y-105421285D01*
X157377202Y-105357718D01*
X157334178Y-105293476D01*
X157292857Y-105231315D01*
X157255086Y-105173991D01*
X157222712Y-105124257D01*
X157197582Y-105084868D01*
X157181542Y-105058580D01*
X157176439Y-105048147D01*
X157181050Y-105043941D01*
X157200267Y-105038933D01*
X157209838Y-105036386D01*
X157237809Y-105025249D01*
X157279448Y-105006802D01*
X157330995Y-104982725D01*
X157388690Y-104954699D01*
X157399957Y-104949154D01*
X157577687Y-104869889D01*
X157747490Y-104810385D01*
X157911430Y-104770245D01*
X158071571Y-104749071D01*
X158229977Y-104746466D01*
X158388711Y-104762033D01*
G36*
X158388711Y-104762033D02*
G01*
X158484268Y-104779523D01*
X158648558Y-104824564D01*
X158802589Y-104887656D01*
X158948509Y-104969915D01*
X159088466Y-105072457D01*
X159224608Y-105196399D01*
X159268473Y-105241661D01*
X159380758Y-105373865D01*
X159473972Y-105511832D01*
X159550719Y-105659750D01*
X159613603Y-105821803D01*
X159617420Y-105833391D01*
X159667507Y-106019392D01*
X159700899Y-106215521D01*
X159717584Y-106417568D01*
X159717551Y-106621325D01*
X159700791Y-106822581D01*
X159667292Y-107017128D01*
X159617044Y-107200756D01*
X159573190Y-107318053D01*
X159495348Y-107480951D01*
X159401828Y-107634866D01*
X159294822Y-107776671D01*
X159176519Y-107903239D01*
X159049111Y-108011441D01*
X158971606Y-108064120D01*
X158844725Y-108133750D01*
X158707243Y-108192468D01*
X158565716Y-108237587D01*
X158426702Y-108266422D01*
X158412597Y-108268106D01*
X158369153Y-108271434D01*
X158311723Y-108274275D01*
X158246122Y-108276373D01*
X158178167Y-108277468D01*
X158051378Y-108275140D01*
X157903673Y-108262136D01*
X157765779Y-108237133D01*
X157632014Y-108199318D01*
X157608562Y-108190889D01*
X157560612Y-108171408D01*
X157504140Y-108146473D01*
X157442379Y-108117722D01*
X157378563Y-108086790D01*
X157315926Y-108055315D01*
X157257703Y-108024934D01*
X157207127Y-107997283D01*
X157167433Y-107973999D01*
X157141854Y-107956718D01*
X157133625Y-107947079D01*
X157135076Y-107943984D01*
X157146250Y-107924079D01*
X157167134Y-107888420D01*
X157196265Y-107839459D01*
X157232181Y-107779646D01*
X157273420Y-107711433D01*
X157318517Y-107637271D01*
X157499785Y-107340008D01*
X157546315Y-107384539D01*
X157637723Y-107462865D01*
X157751334Y-107537439D01*
X157869122Y-107591474D01*
X157989559Y-107624290D01*
X158111117Y-107635211D01*
X158152585Y-107633868D01*
X158270080Y-107615612D01*
X158380089Y-107576617D01*
X158481430Y-107517670D01*
X158572921Y-107439557D01*
X158653380Y-107343064D01*
X158721627Y-107228978D01*
X158737908Y-107194724D01*
X158783982Y-107071240D01*
X158819106Y-106932918D01*
X158843197Y-106783561D01*
X158856173Y-106626973D01*
X158857949Y-106466956D01*
X158848443Y-106307314D01*
X158827572Y-106151850D01*
X158795252Y-106004366D01*
X158751399Y-105868667D01*
X158713982Y-105782076D01*
X158649185Y-105668688D01*
X158573772Y-105575070D01*
X158487418Y-105500959D01*
X158389795Y-105446094D01*
X158280577Y-105410212D01*
X158159439Y-105393051D01*
X158090038Y-105391880D01*
X157967168Y-105406141D01*
X157851664Y-105441241D01*
X157744953Y-105496682D01*
X157648464Y-105571964D01*
X157632720Y-105586440D01*
X157602150Y-105612962D01*
X157579809Y-105630138D01*
X157569691Y-105634787D01*
X157567706Y-105632597D01*
X157553241Y-105613721D01*
X157529400Y-105580397D01*
X157498029Y-105535380D01*
X157460974Y-105481425D01*
X157420083Y-105421285D01*
X157377202Y-105357718D01*
X157334178Y-105293476D01*
X157292857Y-105231315D01*
X157255086Y-105173991D01*
X157222712Y-105124257D01*
X157197582Y-105084868D01*
X157181542Y-105058580D01*
X157176439Y-105048147D01*
X157181050Y-105043941D01*
X157200267Y-105038933D01*
X157209838Y-105036386D01*
X157237809Y-105025249D01*
X157279448Y-105006802D01*
X157330995Y-104982725D01*
X157388690Y-104954699D01*
X157399957Y-104949154D01*
X157577687Y-104869889D01*
X157747490Y-104810385D01*
X157911430Y-104770245D01*
X158071571Y-104749071D01*
X158229977Y-104746466D01*
X158388711Y-104762033D01*
G37*
X154585994Y-107042711D02*
X154585268Y-107120158D01*
X154576689Y-107271594D01*
X154557833Y-107408283D01*
X154527837Y-107534276D01*
X154485836Y-107653625D01*
X154430969Y-107770381D01*
X154364167Y-107881179D01*
X154273363Y-107994739D01*
X154169708Y-108090211D01*
X154053887Y-108167073D01*
X153926586Y-108224797D01*
X153788489Y-108262858D01*
X153750793Y-108268666D01*
X153671752Y-108274396D01*
X153583629Y-108274583D01*
X153494236Y-108269539D01*
X153411384Y-108259578D01*
X153342887Y-108245012D01*
X153312035Y-108235364D01*
X153234730Y-108205123D01*
X153157679Y-108167617D01*
X153088200Y-108126614D01*
X153033615Y-108085879D01*
X153010916Y-108066505D01*
X152988201Y-108048662D01*
X152976779Y-108041778D01*
X152975537Y-108043424D01*
X152972728Y-108061205D01*
X152970776Y-108094370D01*
X152970045Y-108137733D01*
X152970045Y-108233689D01*
X152111896Y-108233689D01*
X152146161Y-108172974D01*
X152151355Y-108163868D01*
X152159715Y-108149249D01*
X152167288Y-108135173D01*
X152174112Y-108120540D01*
X152180227Y-108104249D01*
X152185673Y-108085198D01*
X152190487Y-108062286D01*
X152194708Y-108034413D01*
X152198377Y-108000478D01*
X152201531Y-107959379D01*
X152204211Y-107910015D01*
X152206454Y-107851286D01*
X152208299Y-107782090D01*
X152209787Y-107701326D01*
X152210955Y-107607894D01*
X152211844Y-107500692D01*
X152212491Y-107378620D01*
X152212936Y-107240576D01*
X152213218Y-107085459D01*
X152213375Y-106912168D01*
X152213448Y-106719603D01*
X152213474Y-106506662D01*
X152213485Y-106370530D01*
X153015200Y-106370530D01*
X153015200Y-107520721D01*
X153085756Y-107567089D01*
X153126417Y-107590791D01*
X153180546Y-107616639D01*
X153229689Y-107634829D01*
X153293165Y-107650551D01*
X153389331Y-107661541D01*
X153473900Y-107653365D01*
X153547219Y-107625805D01*
X153609637Y-107578642D01*
X153661502Y-107511658D01*
X153703160Y-107424633D01*
X153734962Y-107317350D01*
X153737545Y-107305009D01*
X153746000Y-107243772D01*
X153751663Y-107166692D01*
X153754576Y-107079002D01*
X153754783Y-106985934D01*
X153752330Y-106892720D01*
X153747261Y-106804594D01*
X153739619Y-106726788D01*
X153729448Y-106664533D01*
X153728167Y-106658666D01*
X153699126Y-106548121D01*
X153664610Y-106457575D01*
X153623456Y-106384953D01*
X153574499Y-106328181D01*
X153516574Y-106285184D01*
X153484620Y-106269615D01*
X153411784Y-106250722D01*
X153330443Y-106247465D01*
X153245319Y-106259389D01*
X153161133Y-106286040D01*
X153082608Y-106326962D01*
X153015200Y-106370530D01*
X152213485Y-106370530D01*
X152213493Y-106272245D01*
X152213689Y-104587378D01*
X153119017Y-104587378D01*
X153094585Y-104624067D01*
X153088318Y-104633647D01*
X153062208Y-104679981D01*
X153044469Y-104727102D01*
X153032908Y-104782251D01*
X153025331Y-104852667D01*
X153024839Y-104859650D01*
X153023062Y-104897641D01*
X153021444Y-104951576D01*
X153019999Y-105018703D01*
X153018740Y-105096271D01*
X153017680Y-105181528D01*
X153016829Y-105271724D01*
X153016203Y-105364107D01*
X153015812Y-105455925D01*
X153015670Y-105544427D01*
X153015790Y-105626862D01*
X153016183Y-105700479D01*
X153016862Y-105762526D01*
X153017841Y-105810251D01*
X153019132Y-105840904D01*
X153020747Y-105851733D01*
X153028957Y-105847333D01*
X153050647Y-105832362D01*
X153080014Y-105810448D01*
X153128879Y-105776236D01*
X153217125Y-105729714D01*
X153315916Y-105696046D01*
X153428510Y-105674231D01*
X153558164Y-105663265D01*
X153650670Y-105662219D01*
X153772011Y-105672014D01*
X153882099Y-105696174D01*
X153985389Y-105735785D01*
X154086338Y-105791932D01*
X154131503Y-105822883D01*
X154236911Y-105914115D01*
X154328538Y-106023106D01*
X154406332Y-106149726D01*
X154470241Y-106293845D01*
X154520214Y-106455332D01*
X154556198Y-106634059D01*
X154578143Y-106829895D01*
X154583900Y-106985934D01*
X154585994Y-107042711D01*
G36*
X154585994Y-107042711D02*
G01*
X154585268Y-107120158D01*
X154576689Y-107271594D01*
X154557833Y-107408283D01*
X154527837Y-107534276D01*
X154485836Y-107653625D01*
X154430969Y-107770381D01*
X154364167Y-107881179D01*
X154273363Y-107994739D01*
X154169708Y-108090211D01*
X154053887Y-108167073D01*
X153926586Y-108224797D01*
X153788489Y-108262858D01*
X153750793Y-108268666D01*
X153671752Y-108274396D01*
X153583629Y-108274583D01*
X153494236Y-108269539D01*
X153411384Y-108259578D01*
X153342887Y-108245012D01*
X153312035Y-108235364D01*
X153234730Y-108205123D01*
X153157679Y-108167617D01*
X153088200Y-108126614D01*
X153033615Y-108085879D01*
X153010916Y-108066505D01*
X152988201Y-108048662D01*
X152976779Y-108041778D01*
X152975537Y-108043424D01*
X152972728Y-108061205D01*
X152970776Y-108094370D01*
X152970045Y-108137733D01*
X152970045Y-108233689D01*
X152111896Y-108233689D01*
X152146161Y-108172974D01*
X152151355Y-108163868D01*
X152159715Y-108149249D01*
X152167288Y-108135173D01*
X152174112Y-108120540D01*
X152180227Y-108104249D01*
X152185673Y-108085198D01*
X152190487Y-108062286D01*
X152194708Y-108034413D01*
X152198377Y-108000478D01*
X152201531Y-107959379D01*
X152204211Y-107910015D01*
X152206454Y-107851286D01*
X152208299Y-107782090D01*
X152209787Y-107701326D01*
X152210955Y-107607894D01*
X152211844Y-107500692D01*
X152212491Y-107378620D01*
X152212936Y-107240576D01*
X152213218Y-107085459D01*
X152213375Y-106912168D01*
X152213448Y-106719603D01*
X152213474Y-106506662D01*
X152213485Y-106370530D01*
X153015200Y-106370530D01*
X153015200Y-107520721D01*
X153085756Y-107567089D01*
X153126417Y-107590791D01*
X153180546Y-107616639D01*
X153229689Y-107634829D01*
X153293165Y-107650551D01*
X153389331Y-107661541D01*
X153473900Y-107653365D01*
X153547219Y-107625805D01*
X153609637Y-107578642D01*
X153661502Y-107511658D01*
X153703160Y-107424633D01*
X153734962Y-107317350D01*
X153737545Y-107305009D01*
X153746000Y-107243772D01*
X153751663Y-107166692D01*
X153754576Y-107079002D01*
X153754783Y-106985934D01*
X153752330Y-106892720D01*
X153747261Y-106804594D01*
X153739619Y-106726788D01*
X153729448Y-106664533D01*
X153728167Y-106658666D01*
X153699126Y-106548121D01*
X153664610Y-106457575D01*
X153623456Y-106384953D01*
X153574499Y-106328181D01*
X153516574Y-106285184D01*
X153484620Y-106269615D01*
X153411784Y-106250722D01*
X153330443Y-106247465D01*
X153245319Y-106259389D01*
X153161133Y-106286040D01*
X153082608Y-106326962D01*
X153015200Y-106370530D01*
X152213485Y-106370530D01*
X152213493Y-106272245D01*
X152213689Y-104587378D01*
X153119017Y-104587378D01*
X153094585Y-104624067D01*
X153088318Y-104633647D01*
X153062208Y-104679981D01*
X153044469Y-104727102D01*
X153032908Y-104782251D01*
X153025331Y-104852667D01*
X153024839Y-104859650D01*
X153023062Y-104897641D01*
X153021444Y-104951576D01*
X153019999Y-105018703D01*
X153018740Y-105096271D01*
X153017680Y-105181528D01*
X153016829Y-105271724D01*
X153016203Y-105364107D01*
X153015812Y-105455925D01*
X153015670Y-105544427D01*
X153015790Y-105626862D01*
X153016183Y-105700479D01*
X153016862Y-105762526D01*
X153017841Y-105810251D01*
X153019132Y-105840904D01*
X153020747Y-105851733D01*
X153028957Y-105847333D01*
X153050647Y-105832362D01*
X153080014Y-105810448D01*
X153128879Y-105776236D01*
X153217125Y-105729714D01*
X153315916Y-105696046D01*
X153428510Y-105674231D01*
X153558164Y-105663265D01*
X153650670Y-105662219D01*
X153772011Y-105672014D01*
X153882099Y-105696174D01*
X153985389Y-105735785D01*
X154086338Y-105791932D01*
X154131503Y-105822883D01*
X154236911Y-105914115D01*
X154328538Y-106023106D01*
X154406332Y-106149726D01*
X154470241Y-106293845D01*
X154520214Y-106455332D01*
X154556198Y-106634059D01*
X154578143Y-106829895D01*
X154583900Y-106985934D01*
X154585994Y-107042711D01*
G37*
X157127755Y-107443467D02*
X157127261Y-107477363D01*
X157123632Y-107552202D01*
X157116022Y-107614401D01*
X157103688Y-107670984D01*
X157059313Y-107797076D01*
X156996400Y-107911679D01*
X156916238Y-108012568D01*
X156819740Y-108098924D01*
X156707822Y-108169932D01*
X156581397Y-108224776D01*
X156441378Y-108262638D01*
X156405149Y-108268351D01*
X156326155Y-108274313D01*
X156237841Y-108274646D01*
X156148075Y-108269659D01*
X156064722Y-108259666D01*
X155995651Y-108244978D01*
X155909187Y-108214749D01*
X155799286Y-108160057D01*
X155701956Y-108092543D01*
X155639867Y-108041556D01*
X155636605Y-108137622D01*
X155633343Y-108233689D01*
X155210450Y-108233689D01*
X155199543Y-108233686D01*
X155105056Y-108233380D01*
X155018331Y-108232616D01*
X154941837Y-108231451D01*
X154878043Y-108229942D01*
X154829418Y-108228147D01*
X154798433Y-108226121D01*
X154787556Y-108223922D01*
X154787578Y-108223463D01*
X154794614Y-108207910D01*
X154810434Y-108185071D01*
X154814734Y-108179638D01*
X154825777Y-108165606D01*
X154835311Y-108152186D01*
X154843461Y-108137722D01*
X154850352Y-108120556D01*
X154856111Y-108099034D01*
X154860862Y-108071498D01*
X154864731Y-108036292D01*
X154867844Y-107991760D01*
X154870325Y-107936246D01*
X154872300Y-107868093D01*
X154873894Y-107785645D01*
X154875234Y-107687246D01*
X154876444Y-107571239D01*
X154877649Y-107435968D01*
X154878595Y-107324586D01*
X155679378Y-107324586D01*
X155679378Y-107520462D01*
X155724048Y-107576973D01*
X155736785Y-107592212D01*
X155783604Y-107634844D01*
X155844255Y-107670672D01*
X155854897Y-107675850D01*
X155893676Y-107692745D01*
X155928692Y-107702909D01*
X155968722Y-107708325D01*
X156022541Y-107710978D01*
X156040648Y-107711383D01*
X156116011Y-107708540D01*
X156176743Y-107696620D01*
X156228452Y-107674037D01*
X156276746Y-107639211D01*
X156281803Y-107634798D01*
X156330272Y-107579160D01*
X156358459Y-107515333D01*
X156367752Y-107440282D01*
X156360520Y-107368693D01*
X156335796Y-107305645D01*
X156291249Y-107247758D01*
X156236319Y-107200808D01*
X156163894Y-107160961D01*
X156077340Y-107133263D01*
X155974670Y-107117096D01*
X155853894Y-107111842D01*
X155845007Y-107111857D01*
X155789660Y-107112655D01*
X155742736Y-107114488D01*
X155708953Y-107117111D01*
X155693028Y-107120274D01*
X155688943Y-107126741D01*
X155684572Y-107148875D01*
X155681604Y-107187988D01*
X155679914Y-107245939D01*
X155679378Y-107324586D01*
X154878595Y-107324586D01*
X154878975Y-107279778D01*
X154880228Y-107137012D01*
X154881651Y-106991942D01*
X154883176Y-106866027D01*
X154884933Y-106757436D01*
X154887051Y-106664334D01*
X154889660Y-106584891D01*
X154892890Y-106517273D01*
X154896869Y-106459649D01*
X154901728Y-106410185D01*
X154907597Y-106367050D01*
X154914604Y-106328410D01*
X154922880Y-106292434D01*
X154932554Y-106257289D01*
X154943756Y-106221142D01*
X154956616Y-106182161D01*
X154972090Y-106139091D01*
X155014994Y-106046871D01*
X155068735Y-105967099D01*
X155137576Y-105892965D01*
X155215185Y-105829405D01*
X155319761Y-105767725D01*
X155439244Y-105720202D01*
X155574508Y-105686567D01*
X155726426Y-105666552D01*
X155895872Y-105659889D01*
X155953890Y-105660287D01*
X156019398Y-105662335D01*
X156080693Y-105666704D01*
X156142097Y-105674035D01*
X156207932Y-105684969D01*
X156282520Y-105700147D01*
X156370184Y-105720209D01*
X156475245Y-105745797D01*
X156503806Y-105752820D01*
X156579054Y-105770776D01*
X156649388Y-105786820D01*
X156710567Y-105800028D01*
X156758354Y-105809474D01*
X156788511Y-105814231D01*
X156816783Y-105817910D01*
X156843060Y-105823187D01*
X156853059Y-105827942D01*
X156849952Y-105836781D01*
X156839194Y-105864072D01*
X156821864Y-105906906D01*
X156799126Y-105962425D01*
X156772147Y-106027772D01*
X156742090Y-106100089D01*
X156735493Y-106115879D01*
X156696907Y-106206484D01*
X156665768Y-106276217D01*
X156641917Y-106325405D01*
X156625198Y-106354374D01*
X156615454Y-106363452D01*
X156607766Y-106361405D01*
X156581415Y-106351760D01*
X156542982Y-106336190D01*
X156497822Y-106316815D01*
X156403293Y-106278814D01*
X156266480Y-106237780D01*
X156125289Y-106212612D01*
X156087314Y-106208611D01*
X155984059Y-106206447D01*
X155896952Y-106219622D01*
X155825129Y-106248756D01*
X155767731Y-106294466D01*
X155723896Y-106357372D01*
X155692762Y-106438092D01*
X155673470Y-106537245D01*
X155666050Y-106596224D01*
X155827936Y-106589445D01*
X155954495Y-106587813D01*
X156105951Y-106594194D01*
X156254396Y-106608777D01*
X156390578Y-106630882D01*
X156455245Y-106645821D01*
X156587490Y-106688741D01*
X156709762Y-106745340D01*
X156819685Y-106814017D01*
X156914883Y-106893170D01*
X156992980Y-106981196D01*
X157051599Y-107076493D01*
X157075595Y-107128864D01*
X157101232Y-107199590D01*
X157117478Y-107270812D01*
X157125822Y-107349712D01*
X157127690Y-107440282D01*
X157127755Y-107443467D01*
G36*
X157127755Y-107443467D02*
G01*
X157127261Y-107477363D01*
X157123632Y-107552202D01*
X157116022Y-107614401D01*
X157103688Y-107670984D01*
X157059313Y-107797076D01*
X156996400Y-107911679D01*
X156916238Y-108012568D01*
X156819740Y-108098924D01*
X156707822Y-108169932D01*
X156581397Y-108224776D01*
X156441378Y-108262638D01*
X156405149Y-108268351D01*
X156326155Y-108274313D01*
X156237841Y-108274646D01*
X156148075Y-108269659D01*
X156064722Y-108259666D01*
X155995651Y-108244978D01*
X155909187Y-108214749D01*
X155799286Y-108160057D01*
X155701956Y-108092543D01*
X155639867Y-108041556D01*
X155636605Y-108137622D01*
X155633343Y-108233689D01*
X155210450Y-108233689D01*
X155199543Y-108233686D01*
X155105056Y-108233380D01*
X155018331Y-108232616D01*
X154941837Y-108231451D01*
X154878043Y-108229942D01*
X154829418Y-108228147D01*
X154798433Y-108226121D01*
X154787556Y-108223922D01*
X154787578Y-108223463D01*
X154794614Y-108207910D01*
X154810434Y-108185071D01*
X154814734Y-108179638D01*
X154825777Y-108165606D01*
X154835311Y-108152186D01*
X154843461Y-108137722D01*
X154850352Y-108120556D01*
X154856111Y-108099034D01*
X154860862Y-108071498D01*
X154864731Y-108036292D01*
X154867844Y-107991760D01*
X154870325Y-107936246D01*
X154872300Y-107868093D01*
X154873894Y-107785645D01*
X154875234Y-107687246D01*
X154876444Y-107571239D01*
X154877649Y-107435968D01*
X154878595Y-107324586D01*
X155679378Y-107324586D01*
X155679378Y-107520462D01*
X155724048Y-107576973D01*
X155736785Y-107592212D01*
X155783604Y-107634844D01*
X155844255Y-107670672D01*
X155854897Y-107675850D01*
X155893676Y-107692745D01*
X155928692Y-107702909D01*
X155968722Y-107708325D01*
X156022541Y-107710978D01*
X156040648Y-107711383D01*
X156116011Y-107708540D01*
X156176743Y-107696620D01*
X156228452Y-107674037D01*
X156276746Y-107639211D01*
X156281803Y-107634798D01*
X156330272Y-107579160D01*
X156358459Y-107515333D01*
X156367752Y-107440282D01*
X156360520Y-107368693D01*
X156335796Y-107305645D01*
X156291249Y-107247758D01*
X156236319Y-107200808D01*
X156163894Y-107160961D01*
X156077340Y-107133263D01*
X155974670Y-107117096D01*
X155853894Y-107111842D01*
X155845007Y-107111857D01*
X155789660Y-107112655D01*
X155742736Y-107114488D01*
X155708953Y-107117111D01*
X155693028Y-107120274D01*
X155688943Y-107126741D01*
X155684572Y-107148875D01*
X155681604Y-107187988D01*
X155679914Y-107245939D01*
X155679378Y-107324586D01*
X154878595Y-107324586D01*
X154878975Y-107279778D01*
X154880228Y-107137012D01*
X154881651Y-106991942D01*
X154883176Y-106866027D01*
X154884933Y-106757436D01*
X154887051Y-106664334D01*
X154889660Y-106584891D01*
X154892890Y-106517273D01*
X154896869Y-106459649D01*
X154901728Y-106410185D01*
X154907597Y-106367050D01*
X154914604Y-106328410D01*
X154922880Y-106292434D01*
X154932554Y-106257289D01*
X154943756Y-106221142D01*
X154956616Y-106182161D01*
X154972090Y-106139091D01*
X155014994Y-106046871D01*
X155068735Y-105967099D01*
X155137576Y-105892965D01*
X155215185Y-105829405D01*
X155319761Y-105767725D01*
X155439244Y-105720202D01*
X155574508Y-105686567D01*
X155726426Y-105666552D01*
X155895872Y-105659889D01*
X155953890Y-105660287D01*
X156019398Y-105662335D01*
X156080693Y-105666704D01*
X156142097Y-105674035D01*
X156207932Y-105684969D01*
X156282520Y-105700147D01*
X156370184Y-105720209D01*
X156475245Y-105745797D01*
X156503806Y-105752820D01*
X156579054Y-105770776D01*
X156649388Y-105786820D01*
X156710567Y-105800028D01*
X156758354Y-105809474D01*
X156788511Y-105814231D01*
X156816783Y-105817910D01*
X156843060Y-105823187D01*
X156853059Y-105827942D01*
X156849952Y-105836781D01*
X156839194Y-105864072D01*
X156821864Y-105906906D01*
X156799126Y-105962425D01*
X156772147Y-106027772D01*
X156742090Y-106100089D01*
X156735493Y-106115879D01*
X156696907Y-106206484D01*
X156665768Y-106276217D01*
X156641917Y-106325405D01*
X156625198Y-106354374D01*
X156615454Y-106363452D01*
X156607766Y-106361405D01*
X156581415Y-106351760D01*
X156542982Y-106336190D01*
X156497822Y-106316815D01*
X156403293Y-106278814D01*
X156266480Y-106237780D01*
X156125289Y-106212612D01*
X156087314Y-106208611D01*
X155984059Y-106206447D01*
X155896952Y-106219622D01*
X155825129Y-106248756D01*
X155767731Y-106294466D01*
X155723896Y-106357372D01*
X155692762Y-106438092D01*
X155673470Y-106537245D01*
X155666050Y-106596224D01*
X155827936Y-106589445D01*
X155954495Y-106587813D01*
X156105951Y-106594194D01*
X156254396Y-106608777D01*
X156390578Y-106630882D01*
X156455245Y-106645821D01*
X156587490Y-106688741D01*
X156709762Y-106745340D01*
X156819685Y-106814017D01*
X156914883Y-106893170D01*
X156992980Y-106981196D01*
X157051599Y-107076493D01*
X157075595Y-107128864D01*
X157101232Y-107199590D01*
X157117478Y-107270812D01*
X157125822Y-107349712D01*
X157127690Y-107440282D01*
X157127755Y-107443467D01*
G37*
X164675614Y-104911792D02*
X164676059Y-105043011D01*
X164676362Y-105190216D01*
X164676548Y-105354349D01*
X164676642Y-105536352D01*
X164676671Y-105737165D01*
X164676661Y-105957732D01*
X164676636Y-106198992D01*
X164676622Y-106461889D01*
X164676622Y-106504040D01*
X164676646Y-106764668D01*
X164676685Y-107003796D01*
X164676708Y-107222360D01*
X164676687Y-107421295D01*
X164676593Y-107601535D01*
X164676395Y-107764015D01*
X164676063Y-107909670D01*
X164675569Y-108039434D01*
X164674883Y-108154243D01*
X164673976Y-108255030D01*
X164672817Y-108342730D01*
X164671378Y-108418279D01*
X164669629Y-108482611D01*
X164667540Y-108536661D01*
X164665083Y-108581363D01*
X164662227Y-108617652D01*
X164658943Y-108646463D01*
X164655202Y-108668731D01*
X164650974Y-108685390D01*
X164646229Y-108697375D01*
X164640939Y-108705621D01*
X164635073Y-108711062D01*
X164628602Y-108714634D01*
X164621497Y-108717270D01*
X164613728Y-108719906D01*
X164605266Y-108723477D01*
X164600908Y-108725145D01*
X164592395Y-108727111D01*
X164579694Y-108728911D01*
X164561885Y-108730555D01*
X164538049Y-108732047D01*
X164507266Y-108733397D01*
X164468617Y-108734611D01*
X164421182Y-108735697D01*
X164364043Y-108736661D01*
X164296279Y-108737511D01*
X164216971Y-108738253D01*
X164125199Y-108738897D01*
X164020044Y-108739447D01*
X163900587Y-108739913D01*
X163765908Y-108740300D01*
X163615088Y-108740616D01*
X163447206Y-108740869D01*
X163261345Y-108741066D01*
X163056583Y-108741213D01*
X162832002Y-108741318D01*
X162586682Y-108741389D01*
X162319704Y-108741432D01*
X162281321Y-108741437D01*
X162015922Y-108741480D01*
X161772050Y-108741525D01*
X161548783Y-108741548D01*
X161345196Y-108741524D01*
X161160367Y-108741430D01*
X160993373Y-108741243D01*
X160843290Y-108740939D01*
X160709196Y-108740494D01*
X160590166Y-108739885D01*
X160485279Y-108739089D01*
X160393610Y-108738080D01*
X160314237Y-108736837D01*
X160246237Y-108735335D01*
X160188686Y-108733551D01*
X160140662Y-108731461D01*
X160101240Y-108729042D01*
X160069499Y-108726270D01*
X160044514Y-108723121D01*
X160025364Y-108719572D01*
X160011123Y-108715598D01*
X160000871Y-108711178D01*
X159993682Y-108706286D01*
X159988635Y-108700900D01*
X159984805Y-108694996D01*
X159981271Y-108688549D01*
X159977108Y-108681537D01*
X159976025Y-108679687D01*
X159973813Y-108674180D01*
X159971786Y-108665868D01*
X159969938Y-108653809D01*
X159968261Y-108637063D01*
X159966745Y-108614687D01*
X159965383Y-108585740D01*
X159964167Y-108549280D01*
X159963089Y-108504367D01*
X159962140Y-108450057D01*
X159961312Y-108385410D01*
X159960597Y-108309484D01*
X159959987Y-108221338D01*
X159959942Y-108212493D01*
X160251378Y-108212493D01*
X160255260Y-108213765D01*
X160278520Y-108215791D01*
X160320874Y-108217626D01*
X160380132Y-108219227D01*
X160454107Y-108220549D01*
X160540610Y-108221548D01*
X160637452Y-108222180D01*
X160742445Y-108222400D01*
X161440651Y-108222400D01*
X162595090Y-108222400D01*
X162594456Y-108146200D01*
X162595574Y-108104160D01*
X162601304Y-108068334D01*
X162613890Y-108030772D01*
X162635568Y-107982577D01*
X162638789Y-107975897D01*
X162664188Y-107926359D01*
X162690996Y-107878369D01*
X162713917Y-107841466D01*
X162718485Y-107834834D01*
X162740516Y-107803593D01*
X162772693Y-107758654D01*
X162813457Y-107702147D01*
X162861245Y-107636204D01*
X162914498Y-107562957D01*
X162971655Y-107484536D01*
X163031155Y-107403072D01*
X163091437Y-107320698D01*
X163150940Y-107239544D01*
X163208105Y-107161742D01*
X163261370Y-107089423D01*
X163309174Y-107024718D01*
X163349957Y-106969759D01*
X163382158Y-106926676D01*
X163404216Y-106897602D01*
X163414571Y-106884667D01*
X163419044Y-106880351D01*
X163423236Y-106878312D01*
X163426643Y-106880926D01*
X163429325Y-106889986D01*
X163431341Y-106907285D01*
X163432748Y-106934614D01*
X163433605Y-106973765D01*
X163433970Y-107026533D01*
X163433903Y-107094707D01*
X163433460Y-107180082D01*
X163432702Y-107284449D01*
X163431685Y-107409600D01*
X163431308Y-107454300D01*
X163430169Y-107575395D01*
X163428972Y-107676688D01*
X163427636Y-107760262D01*
X163426077Y-107828204D01*
X163424215Y-107882599D01*
X163421966Y-107925532D01*
X163419248Y-107959089D01*
X163415979Y-107985355D01*
X163412078Y-108006416D01*
X163407461Y-108024357D01*
X163399192Y-108050770D01*
X163375583Y-108112772D01*
X163349685Y-108165573D01*
X163324535Y-108202645D01*
X163323339Y-108204075D01*
X163321168Y-108208424D01*
X163323328Y-108212026D01*
X163331644Y-108214951D01*
X163347940Y-108217269D01*
X163374041Y-108219051D01*
X163411771Y-108220367D01*
X163462956Y-108221286D01*
X163529420Y-108221878D01*
X163612987Y-108222215D01*
X163715483Y-108222365D01*
X163838732Y-108222400D01*
X164370296Y-108222400D01*
X164331523Y-108164783D01*
X164325432Y-108155893D01*
X164314976Y-108141069D01*
X164305579Y-108127422D01*
X164297183Y-108113765D01*
X164289733Y-108098911D01*
X164283173Y-108081670D01*
X164277446Y-108060855D01*
X164272495Y-108035280D01*
X164268266Y-108003755D01*
X164264701Y-107965093D01*
X164261744Y-107918107D01*
X164259340Y-107861608D01*
X164257431Y-107794409D01*
X164255962Y-107715322D01*
X164254876Y-107623160D01*
X164254118Y-107516734D01*
X164253630Y-107394857D01*
X164253358Y-107256341D01*
X164253243Y-107099999D01*
X164253231Y-106924642D01*
X164253265Y-106729082D01*
X164253289Y-106512133D01*
X164253280Y-106389513D01*
X164253243Y-106184447D01*
X164253227Y-106000116D01*
X164253288Y-105835334D01*
X164253484Y-105688916D01*
X164253870Y-105559674D01*
X164254505Y-105446422D01*
X164255444Y-105347975D01*
X164256745Y-105263144D01*
X164258464Y-105190744D01*
X164260659Y-105129589D01*
X164263385Y-105078492D01*
X164266701Y-105036267D01*
X164270662Y-105001727D01*
X164275325Y-104973686D01*
X164280747Y-104950958D01*
X164286986Y-104932356D01*
X164294097Y-104916693D01*
X164302138Y-104902784D01*
X164311166Y-104889441D01*
X164321236Y-104875479D01*
X164332407Y-104859711D01*
X164372197Y-104801867D01*
X163312314Y-104801867D01*
X163350311Y-104864966D01*
X163364993Y-104890005D01*
X163379531Y-104917586D01*
X163391627Y-104945700D01*
X163401532Y-104976551D01*
X163409494Y-105012344D01*
X163415761Y-105055283D01*
X163420582Y-105107574D01*
X163424206Y-105171419D01*
X163426881Y-105249025D01*
X163428857Y-105342594D01*
X163430382Y-105454333D01*
X163431704Y-105586445D01*
X163432613Y-105706434D01*
X163433020Y-105823063D01*
X163432767Y-105918531D01*
X163431857Y-105992556D01*
X163430293Y-106044855D01*
X163428079Y-106075149D01*
X163425220Y-106083156D01*
X163422161Y-106079858D01*
X163404006Y-106058408D01*
X163374275Y-106021889D01*
X163334639Y-105972442D01*
X163286771Y-105912207D01*
X163232343Y-105843327D01*
X163173027Y-105767943D01*
X163110495Y-105688196D01*
X163046421Y-105606228D01*
X162982475Y-105524180D01*
X162920331Y-105444194D01*
X162861661Y-105368411D01*
X162808137Y-105298973D01*
X162761430Y-105238021D01*
X162723214Y-105187696D01*
X162695161Y-105150140D01*
X162678943Y-105127495D01*
X162633635Y-105055212D01*
X162593661Y-104975463D01*
X162572130Y-104907188D01*
X162568827Y-104849844D01*
X162574116Y-104801867D01*
X161442356Y-104802117D01*
X161481867Y-104832722D01*
X161491248Y-104840089D01*
X161554183Y-104894438D01*
X161622997Y-104962259D01*
X161699596Y-105045516D01*
X161785888Y-105146178D01*
X161803052Y-105166847D01*
X161843833Y-105216409D01*
X161893588Y-105277326D01*
X161950955Y-105347898D01*
X162014569Y-105426424D01*
X162083069Y-105511204D01*
X162155090Y-105600537D01*
X162229270Y-105692722D01*
X162244517Y-105711702D01*
X162304246Y-105786060D01*
X162378653Y-105878848D01*
X162451131Y-105969388D01*
X162520314Y-106055978D01*
X162584841Y-106136918D01*
X162643347Y-106210506D01*
X162694470Y-106275044D01*
X162736847Y-106328829D01*
X162769115Y-106370162D01*
X162789910Y-106397342D01*
X162797869Y-106408668D01*
X162796111Y-106412771D01*
X162783230Y-106433334D01*
X162758885Y-106469561D01*
X162724247Y-106519824D01*
X162680486Y-106582492D01*
X162628775Y-106655936D01*
X162570284Y-106738527D01*
X162506184Y-106828636D01*
X162437646Y-106924631D01*
X162365843Y-107024885D01*
X162291944Y-107127768D01*
X162217121Y-107231650D01*
X162142545Y-107334901D01*
X162069387Y-107435892D01*
X161998819Y-107532994D01*
X161932011Y-107624577D01*
X161870135Y-107709011D01*
X161814361Y-107784667D01*
X161765862Y-107849916D01*
X161725807Y-107903128D01*
X161695369Y-107942673D01*
X161674944Y-107968026D01*
X161628899Y-108022295D01*
X161578612Y-108078775D01*
X161531815Y-108128669D01*
X161440651Y-108222400D01*
X160742445Y-108222400D01*
X160811356Y-108222349D01*
X160909607Y-108222091D01*
X160999030Y-108221637D01*
X161077333Y-108221010D01*
X161142223Y-108220235D01*
X161191411Y-108219335D01*
X161222604Y-108218334D01*
X161233511Y-108217257D01*
X161232322Y-108214037D01*
X161222176Y-108196452D01*
X161205040Y-108170158D01*
X161196540Y-108157691D01*
X161187329Y-108143622D01*
X161179233Y-108129351D01*
X161172185Y-108113479D01*
X161166117Y-108094609D01*
X161160961Y-108071341D01*
X161156651Y-108042278D01*
X161153119Y-108006021D01*
X161150297Y-107961170D01*
X161148118Y-107906328D01*
X161146514Y-107840097D01*
X161145419Y-107761077D01*
X161144765Y-107667871D01*
X161144484Y-107559079D01*
X161144509Y-107433303D01*
X161144772Y-107289145D01*
X161145206Y-107125207D01*
X161145745Y-106940089D01*
X161146279Y-106761232D01*
X161146805Y-106602374D01*
X161147350Y-106463316D01*
X161147945Y-106342665D01*
X161148619Y-106239028D01*
X161149403Y-106151011D01*
X161150326Y-106077223D01*
X161151419Y-106016269D01*
X161152712Y-105966757D01*
X161154235Y-105927293D01*
X161156019Y-105896484D01*
X161158092Y-105872938D01*
X161160486Y-105855260D01*
X161163230Y-105842059D01*
X161166356Y-105831940D01*
X161169892Y-105823511D01*
X161173791Y-105815375D01*
X161193438Y-105778544D01*
X161212225Y-105748391D01*
X161213272Y-105746908D01*
X161227602Y-105724659D01*
X161233511Y-105711702D01*
X161232504Y-105711249D01*
X161215305Y-105709803D01*
X161178656Y-105708480D01*
X161124962Y-105707316D01*
X161056630Y-105706347D01*
X160976064Y-105705611D01*
X160885670Y-105705142D01*
X160787853Y-105704978D01*
X160342195Y-105704978D01*
X160339120Y-106881845D01*
X160336045Y-108058711D01*
X160309407Y-108117622D01*
X160297485Y-108142183D01*
X160280246Y-108172434D01*
X160267074Y-108189560D01*
X160259076Y-108197591D01*
X160251378Y-108212493D01*
X159959942Y-108212493D01*
X159959474Y-108120029D01*
X159959050Y-108004617D01*
X159958706Y-107874160D01*
X159958434Y-107727716D01*
X159958227Y-107564344D01*
X159958076Y-107383101D01*
X159957972Y-107183048D01*
X159957908Y-106963241D01*
X159957876Y-106722739D01*
X159957867Y-106460602D01*
X159957867Y-104269031D01*
X159996249Y-104230649D01*
X160023355Y-104206911D01*
X160050253Y-104195111D01*
X160086560Y-104192267D01*
X160138489Y-104192267D01*
X160138489Y-104280206D01*
X160140427Y-104330102D01*
X160159199Y-104440523D01*
X160196217Y-104541987D01*
X160249369Y-104633152D01*
X160316546Y-104712673D01*
X160395638Y-104779205D01*
X160484534Y-104831406D01*
X160581125Y-104867930D01*
X160683300Y-104887434D01*
X160788950Y-104888573D01*
X160895964Y-104870005D01*
X161002232Y-104830384D01*
X161099219Y-104772516D01*
X161184293Y-104697684D01*
X161253015Y-104609615D01*
X161303918Y-104510616D01*
X161335535Y-104402993D01*
X161346400Y-104289054D01*
X161346400Y-104192267D01*
X162966753Y-104192267D01*
X163177897Y-104192280D01*
X163382020Y-104192330D01*
X163565686Y-104192430D01*
X163729991Y-104192592D01*
X163876029Y-104192829D01*
X164004894Y-104193153D01*
X164117683Y-104193575D01*
X164215488Y-104194109D01*
X164299404Y-104194767D01*
X164370527Y-104195561D01*
X164429950Y-104196504D01*
X164478768Y-104197608D01*
X164518077Y-104198884D01*
X164548969Y-104200347D01*
X164572541Y-104202007D01*
X164589886Y-104203878D01*
X164602099Y-104205972D01*
X164610275Y-104208300D01*
X164615508Y-104210876D01*
X164621504Y-104214445D01*
X164628279Y-104217978D01*
X164634478Y-104221488D01*
X164640126Y-104225918D01*
X164645247Y-104232208D01*
X164649869Y-104241301D01*
X164654015Y-104254139D01*
X164657713Y-104271662D01*
X164660987Y-104294813D01*
X164663863Y-104324534D01*
X164666367Y-104361765D01*
X164668524Y-104407449D01*
X164670360Y-104462527D01*
X164671900Y-104527941D01*
X164673170Y-104604633D01*
X164674195Y-104693544D01*
X164675001Y-104795617D01*
X164675034Y-104801867D01*
X164675614Y-104911792D01*
G36*
X164675614Y-104911792D02*
G01*
X164676059Y-105043011D01*
X164676362Y-105190216D01*
X164676548Y-105354349D01*
X164676642Y-105536352D01*
X164676671Y-105737165D01*
X164676661Y-105957732D01*
X164676636Y-106198992D01*
X164676622Y-106461889D01*
X164676622Y-106504040D01*
X164676646Y-106764668D01*
X164676685Y-107003796D01*
X164676708Y-107222360D01*
X164676687Y-107421295D01*
X164676593Y-107601535D01*
X164676395Y-107764015D01*
X164676063Y-107909670D01*
X164675569Y-108039434D01*
X164674883Y-108154243D01*
X164673976Y-108255030D01*
X164672817Y-108342730D01*
X164671378Y-108418279D01*
X164669629Y-108482611D01*
X164667540Y-108536661D01*
X164665083Y-108581363D01*
X164662227Y-108617652D01*
X164658943Y-108646463D01*
X164655202Y-108668731D01*
X164650974Y-108685390D01*
X164646229Y-108697375D01*
X164640939Y-108705621D01*
X164635073Y-108711062D01*
X164628602Y-108714634D01*
X164621497Y-108717270D01*
X164613728Y-108719906D01*
X164605266Y-108723477D01*
X164600908Y-108725145D01*
X164592395Y-108727111D01*
X164579694Y-108728911D01*
X164561885Y-108730555D01*
X164538049Y-108732047D01*
X164507266Y-108733397D01*
X164468617Y-108734611D01*
X164421182Y-108735697D01*
X164364043Y-108736661D01*
X164296279Y-108737511D01*
X164216971Y-108738253D01*
X164125199Y-108738897D01*
X164020044Y-108739447D01*
X163900587Y-108739913D01*
X163765908Y-108740300D01*
X163615088Y-108740616D01*
X163447206Y-108740869D01*
X163261345Y-108741066D01*
X163056583Y-108741213D01*
X162832002Y-108741318D01*
X162586682Y-108741389D01*
X162319704Y-108741432D01*
X162281321Y-108741437D01*
X162015922Y-108741480D01*
X161772050Y-108741525D01*
X161548783Y-108741548D01*
X161345196Y-108741524D01*
X161160367Y-108741430D01*
X160993373Y-108741243D01*
X160843290Y-108740939D01*
X160709196Y-108740494D01*
X160590166Y-108739885D01*
X160485279Y-108739089D01*
X160393610Y-108738080D01*
X160314237Y-108736837D01*
X160246237Y-108735335D01*
X160188686Y-108733551D01*
X160140662Y-108731461D01*
X160101240Y-108729042D01*
X160069499Y-108726270D01*
X160044514Y-108723121D01*
X160025364Y-108719572D01*
X160011123Y-108715598D01*
X160000871Y-108711178D01*
X159993682Y-108706286D01*
X159988635Y-108700900D01*
X159984805Y-108694996D01*
X159981271Y-108688549D01*
X159977108Y-108681537D01*
X159976025Y-108679687D01*
X159973813Y-108674180D01*
X159971786Y-108665868D01*
X159969938Y-108653809D01*
X159968261Y-108637063D01*
X159966745Y-108614687D01*
X159965383Y-108585740D01*
X159964167Y-108549280D01*
X159963089Y-108504367D01*
X159962140Y-108450057D01*
X159961312Y-108385410D01*
X159960597Y-108309484D01*
X159959987Y-108221338D01*
X159959942Y-108212493D01*
X160251378Y-108212493D01*
X160255260Y-108213765D01*
X160278520Y-108215791D01*
X160320874Y-108217626D01*
X160380132Y-108219227D01*
X160454107Y-108220549D01*
X160540610Y-108221548D01*
X160637452Y-108222180D01*
X160742445Y-108222400D01*
X161440651Y-108222400D01*
X162595090Y-108222400D01*
X162594456Y-108146200D01*
X162595574Y-108104160D01*
X162601304Y-108068334D01*
X162613890Y-108030772D01*
X162635568Y-107982577D01*
X162638789Y-107975897D01*
X162664188Y-107926359D01*
X162690996Y-107878369D01*
X162713917Y-107841466D01*
X162718485Y-107834834D01*
X162740516Y-107803593D01*
X162772693Y-107758654D01*
X162813457Y-107702147D01*
X162861245Y-107636204D01*
X162914498Y-107562957D01*
X162971655Y-107484536D01*
X163031155Y-107403072D01*
X163091437Y-107320698D01*
X163150940Y-107239544D01*
X163208105Y-107161742D01*
X163261370Y-107089423D01*
X163309174Y-107024718D01*
X163349957Y-106969759D01*
X163382158Y-106926676D01*
X163404216Y-106897602D01*
X163414571Y-106884667D01*
X163419044Y-106880351D01*
X163423236Y-106878312D01*
X163426643Y-106880926D01*
X163429325Y-106889986D01*
X163431341Y-106907285D01*
X163432748Y-106934614D01*
X163433605Y-106973765D01*
X163433970Y-107026533D01*
X163433903Y-107094707D01*
X163433460Y-107180082D01*
X163432702Y-107284449D01*
X163431685Y-107409600D01*
X163431308Y-107454300D01*
X163430169Y-107575395D01*
X163428972Y-107676688D01*
X163427636Y-107760262D01*
X163426077Y-107828204D01*
X163424215Y-107882599D01*
X163421966Y-107925532D01*
X163419248Y-107959089D01*
X163415979Y-107985355D01*
X163412078Y-108006416D01*
X163407461Y-108024357D01*
X163399192Y-108050770D01*
X163375583Y-108112772D01*
X163349685Y-108165573D01*
X163324535Y-108202645D01*
X163323339Y-108204075D01*
X163321168Y-108208424D01*
X163323328Y-108212026D01*
X163331644Y-108214951D01*
X163347940Y-108217269D01*
X163374041Y-108219051D01*
X163411771Y-108220367D01*
X163462956Y-108221286D01*
X163529420Y-108221878D01*
X163612987Y-108222215D01*
X163715483Y-108222365D01*
X163838732Y-108222400D01*
X164370296Y-108222400D01*
X164331523Y-108164783D01*
X164325432Y-108155893D01*
X164314976Y-108141069D01*
X164305579Y-108127422D01*
X164297183Y-108113765D01*
X164289733Y-108098911D01*
X164283173Y-108081670D01*
X164277446Y-108060855D01*
X164272495Y-108035280D01*
X164268266Y-108003755D01*
X164264701Y-107965093D01*
X164261744Y-107918107D01*
X164259340Y-107861608D01*
X164257431Y-107794409D01*
X164255962Y-107715322D01*
X164254876Y-107623160D01*
X164254118Y-107516734D01*
X164253630Y-107394857D01*
X164253358Y-107256341D01*
X164253243Y-107099999D01*
X164253231Y-106924642D01*
X164253265Y-106729082D01*
X164253289Y-106512133D01*
X164253280Y-106389513D01*
X164253243Y-106184447D01*
X164253227Y-106000116D01*
X164253288Y-105835334D01*
X164253484Y-105688916D01*
X164253870Y-105559674D01*
X164254505Y-105446422D01*
X164255444Y-105347975D01*
X164256745Y-105263144D01*
X164258464Y-105190744D01*
X164260659Y-105129589D01*
X164263385Y-105078492D01*
X164266701Y-105036267D01*
X164270662Y-105001727D01*
X164275325Y-104973686D01*
X164280747Y-104950958D01*
X164286986Y-104932356D01*
X164294097Y-104916693D01*
X164302138Y-104902784D01*
X164311166Y-104889441D01*
X164321236Y-104875479D01*
X164332407Y-104859711D01*
X164372197Y-104801867D01*
X163312314Y-104801867D01*
X163350311Y-104864966D01*
X163364993Y-104890005D01*
X163379531Y-104917586D01*
X163391627Y-104945700D01*
X163401532Y-104976551D01*
X163409494Y-105012344D01*
X163415761Y-105055283D01*
X163420582Y-105107574D01*
X163424206Y-105171419D01*
X163426881Y-105249025D01*
X163428857Y-105342594D01*
X163430382Y-105454333D01*
X163431704Y-105586445D01*
X163432613Y-105706434D01*
X163433020Y-105823063D01*
X163432767Y-105918531D01*
X163431857Y-105992556D01*
X163430293Y-106044855D01*
X163428079Y-106075149D01*
X163425220Y-106083156D01*
X163422161Y-106079858D01*
X163404006Y-106058408D01*
X163374275Y-106021889D01*
X163334639Y-105972442D01*
X163286771Y-105912207D01*
X163232343Y-105843327D01*
X163173027Y-105767943D01*
X163110495Y-105688196D01*
X163046421Y-105606228D01*
X162982475Y-105524180D01*
X162920331Y-105444194D01*
X162861661Y-105368411D01*
X162808137Y-105298973D01*
X162761430Y-105238021D01*
X162723214Y-105187696D01*
X162695161Y-105150140D01*
X162678943Y-105127495D01*
X162633635Y-105055212D01*
X162593661Y-104975463D01*
X162572130Y-104907188D01*
X162568827Y-104849844D01*
X162574116Y-104801867D01*
X161442356Y-104802117D01*
X161481867Y-104832722D01*
X161491248Y-104840089D01*
X161554183Y-104894438D01*
X161622997Y-104962259D01*
X161699596Y-105045516D01*
X161785888Y-105146178D01*
X161803052Y-105166847D01*
X161843833Y-105216409D01*
X161893588Y-105277326D01*
X161950955Y-105347898D01*
X162014569Y-105426424D01*
X162083069Y-105511204D01*
X162155090Y-105600537D01*
X162229270Y-105692722D01*
X162244517Y-105711702D01*
X162304246Y-105786060D01*
X162378653Y-105878848D01*
X162451131Y-105969388D01*
X162520314Y-106055978D01*
X162584841Y-106136918D01*
X162643347Y-106210506D01*
X162694470Y-106275044D01*
X162736847Y-106328829D01*
X162769115Y-106370162D01*
X162789910Y-106397342D01*
X162797869Y-106408668D01*
X162796111Y-106412771D01*
X162783230Y-106433334D01*
X162758885Y-106469561D01*
X162724247Y-106519824D01*
X162680486Y-106582492D01*
X162628775Y-106655936D01*
X162570284Y-106738527D01*
X162506184Y-106828636D01*
X162437646Y-106924631D01*
X162365843Y-107024885D01*
X162291944Y-107127768D01*
X162217121Y-107231650D01*
X162142545Y-107334901D01*
X162069387Y-107435892D01*
X161998819Y-107532994D01*
X161932011Y-107624577D01*
X161870135Y-107709011D01*
X161814361Y-107784667D01*
X161765862Y-107849916D01*
X161725807Y-107903128D01*
X161695369Y-107942673D01*
X161674944Y-107968026D01*
X161628899Y-108022295D01*
X161578612Y-108078775D01*
X161531815Y-108128669D01*
X161440651Y-108222400D01*
X160742445Y-108222400D01*
X160811356Y-108222349D01*
X160909607Y-108222091D01*
X160999030Y-108221637D01*
X161077333Y-108221010D01*
X161142223Y-108220235D01*
X161191411Y-108219335D01*
X161222604Y-108218334D01*
X161233511Y-108217257D01*
X161232322Y-108214037D01*
X161222176Y-108196452D01*
X161205040Y-108170158D01*
X161196540Y-108157691D01*
X161187329Y-108143622D01*
X161179233Y-108129351D01*
X161172185Y-108113479D01*
X161166117Y-108094609D01*
X161160961Y-108071341D01*
X161156651Y-108042278D01*
X161153119Y-108006021D01*
X161150297Y-107961170D01*
X161148118Y-107906328D01*
X161146514Y-107840097D01*
X161145419Y-107761077D01*
X161144765Y-107667871D01*
X161144484Y-107559079D01*
X161144509Y-107433303D01*
X161144772Y-107289145D01*
X161145206Y-107125207D01*
X161145745Y-106940089D01*
X161146279Y-106761232D01*
X161146805Y-106602374D01*
X161147350Y-106463316D01*
X161147945Y-106342665D01*
X161148619Y-106239028D01*
X161149403Y-106151011D01*
X161150326Y-106077223D01*
X161151419Y-106016269D01*
X161152712Y-105966757D01*
X161154235Y-105927293D01*
X161156019Y-105896484D01*
X161158092Y-105872938D01*
X161160486Y-105855260D01*
X161163230Y-105842059D01*
X161166356Y-105831940D01*
X161169892Y-105823511D01*
X161173791Y-105815375D01*
X161193438Y-105778544D01*
X161212225Y-105748391D01*
X161213272Y-105746908D01*
X161227602Y-105724659D01*
X161233511Y-105711702D01*
X161232504Y-105711249D01*
X161215305Y-105709803D01*
X161178656Y-105708480D01*
X161124962Y-105707316D01*
X161056630Y-105706347D01*
X160976064Y-105705611D01*
X160885670Y-105705142D01*
X160787853Y-105704978D01*
X160342195Y-105704978D01*
X160339120Y-106881845D01*
X160336045Y-108058711D01*
X160309407Y-108117622D01*
X160297485Y-108142183D01*
X160280246Y-108172434D01*
X160267074Y-108189560D01*
X160259076Y-108197591D01*
X160251378Y-108212493D01*
X159959942Y-108212493D01*
X159959474Y-108120029D01*
X159959050Y-108004617D01*
X159958706Y-107874160D01*
X159958434Y-107727716D01*
X159958227Y-107564344D01*
X159958076Y-107383101D01*
X159957972Y-107183048D01*
X159957908Y-106963241D01*
X159957876Y-106722739D01*
X159957867Y-106460602D01*
X159957867Y-104269031D01*
X159996249Y-104230649D01*
X160023355Y-104206911D01*
X160050253Y-104195111D01*
X160086560Y-104192267D01*
X160138489Y-104192267D01*
X160138489Y-104280206D01*
X160140427Y-104330102D01*
X160159199Y-104440523D01*
X160196217Y-104541987D01*
X160249369Y-104633152D01*
X160316546Y-104712673D01*
X160395638Y-104779205D01*
X160484534Y-104831406D01*
X160581125Y-104867930D01*
X160683300Y-104887434D01*
X160788950Y-104888573D01*
X160895964Y-104870005D01*
X161002232Y-104830384D01*
X161099219Y-104772516D01*
X161184293Y-104697684D01*
X161253015Y-104609615D01*
X161303918Y-104510616D01*
X161335535Y-104402993D01*
X161346400Y-104289054D01*
X161346400Y-104192267D01*
X162966753Y-104192267D01*
X163177897Y-104192280D01*
X163382020Y-104192330D01*
X163565686Y-104192430D01*
X163729991Y-104192592D01*
X163876029Y-104192829D01*
X164004894Y-104193153D01*
X164117683Y-104193575D01*
X164215488Y-104194109D01*
X164299404Y-104194767D01*
X164370527Y-104195561D01*
X164429950Y-104196504D01*
X164478768Y-104197608D01*
X164518077Y-104198884D01*
X164548969Y-104200347D01*
X164572541Y-104202007D01*
X164589886Y-104203878D01*
X164602099Y-104205972D01*
X164610275Y-104208300D01*
X164615508Y-104210876D01*
X164621504Y-104214445D01*
X164628279Y-104217978D01*
X164634478Y-104221488D01*
X164640126Y-104225918D01*
X164645247Y-104232208D01*
X164649869Y-104241301D01*
X164654015Y-104254139D01*
X164657713Y-104271662D01*
X164660987Y-104294813D01*
X164663863Y-104324534D01*
X164666367Y-104361765D01*
X164668524Y-104407449D01*
X164670360Y-104462527D01*
X164671900Y-104527941D01*
X164673170Y-104604633D01*
X164674195Y-104693544D01*
X164675001Y-104795617D01*
X164675034Y-104801867D01*
X164675614Y-104911792D01*
G37*
%TD*%
M02*
